<svg width="25" height="25" viewBox="0 0 25 25" fill="none" xmlns="http://www.w3.org/2000/svg" smartfill="false" class="sc-ePzlA-D cVMsRu"><g clip-path="url(#clip0_5711_36238)"><path fill-rule="evenodd" clip-rule="evenodd" d="M14.2448 0.632812C14.3149 0.632812 14.3689 0.659974 14.4044 0.691466C14.4365 0.720081 14.4564 0.754243 14.4696 0.783409C14.4963 0.842107 14.5129 0.918834 14.5259 1.00004C14.5392 1.0833 14.5502 1.18172 14.5619 1.28777L14.563 1.29807L14.5633 1.3002C14.5747 1.40367 14.5871 1.51554 14.6034 1.63291C14.672 2.12803 14.8068 2.68727 15.1861 3.05194C15.5598 3.41129 16.1279 3.53776 16.6359 3.60289C16.7578 3.61851 16.8739 3.63039 16.9823 3.64146L16.9824 3.64147L16.9928 3.64253C17.1027 3.65376 17.2069 3.66449 17.2955 3.6776C17.3813 3.69029 17.4683 3.70728 17.5367 3.73601C17.608 3.76595 17.6914 3.8241 17.6914 3.92238C17.6914 4.02066 17.608 4.07882 17.5367 4.10876C17.4683 4.13749 17.3813 4.15447 17.2955 4.16716C17.2069 4.18028 17.1027 4.19101 16.9928 4.20224L16.9824 4.2033L16.9816 4.20338C16.8735 4.21443 16.7575 4.22628 16.6359 4.24189C16.1279 4.307 15.5598 4.43346 15.1861 4.79284C14.8068 5.15751 14.672 5.71675 14.6034 6.21184C14.5871 6.32948 14.5747 6.44152 14.5632 6.54519L14.563 6.54671L14.5619 6.557C14.5502 6.66306 14.5392 6.76147 14.5259 6.84473C14.5129 6.92592 14.4963 7.00268 14.4696 7.06135C14.4564 7.09051 14.4365 7.12467 14.4044 7.1533C14.3689 7.18478 14.3149 7.21197 14.2448 7.21197C14.1747 7.21197 14.1207 7.18478 14.0853 7.1533C14.0531 7.12467 14.0333 7.09051 14.02 7.06135C13.9934 7.00268 13.9768 6.92592 13.9638 6.84473C13.9504 6.76147 13.9395 6.66306 13.9278 6.557L13.9266 6.54671L13.9264 6.545C13.915 6.44138 13.9026 6.32941 13.8863 6.21184C13.8176 5.71675 13.6828 5.15751 13.3035 4.79284C12.9298 4.43346 12.3618 4.307 11.8537 4.24189C11.7321 4.22627 11.6161 4.21442 11.5079 4.20337L11.5072 4.2033L11.4968 4.20224C11.387 4.19101 11.2828 4.18028 11.1941 4.16716C11.1083 4.15447 11.0213 4.13749 10.9529 4.10876C10.8816 4.07882 10.7982 4.02066 10.7982 3.92238C10.7982 3.8241 10.8816 3.76595 10.9529 3.73601C11.0213 3.70728 11.1083 3.69029 11.1941 3.6776C11.2828 3.66449 11.387 3.65376 11.4968 3.64253L11.5072 3.64146C11.6156 3.63039 11.7318 3.61852 11.8537 3.60289C12.3618 3.53776 12.9298 3.41129 13.3035 3.05194C13.6828 2.68727 13.8176 2.12803 13.8863 1.63291C13.9025 1.51557 13.9149 1.40375 13.9264 1.3003L13.9266 1.29806L13.9278 1.28777C13.9395 1.18172 13.9504 1.0833 13.9638 1.00004C13.9768 0.918834 13.9934 0.842107 14.02 0.783409C14.0333 0.754243 14.0531 0.720081 14.0853 0.691466C14.1207 0.659974 14.1747 0.632812 14.2448 0.632812ZM9.40768 3.28906H6.82161C5.96942 3.28906 5.27858 3.9799 5.27858 4.83209V9.78168C5.27858 9.87229 5.29755 9.95846 5.33172 10.0365C4.41856 10.3928 3.77161 11.281 3.77161 12.3203V14.168C3.77161 14.2096 3.76204 14.2508 3.74364 14.2882L2.31085 17.2003C2.20657 17.4122 2.15234 17.6453 2.15234 17.8815V18.8428C2.15234 19.5508 2.62917 20.1474 3.27919 20.3291V21.4652C3.27919 22.3174 3.97003 23.0083 4.82222 23.0083H18.4753C19.3275 23.0083 20.0184 22.3174 20.0184 21.4652V20.3518C20.715 20.203 21.2375 19.5839 21.2375 18.8428V17.8815C21.2375 17.6453 21.1832 17.4122 21.0789 17.2003L19.6459 14.2882C19.6275 14.2508 19.6179 14.2096 19.6179 14.1679V12.3203C19.6179 10.9668 18.5207 9.86961 17.1673 9.86961H14.2988C14.0317 9.86961 13.7931 10.0367 13.7017 10.2878C13.4001 11.1172 12.5531 11.7416 11.5257 11.7416C10.4983 11.7416 9.65135 11.1172 9.34972 10.2878C9.25841 10.0367 9.01979 9.86961 8.75262 9.86961H6.54328C6.54725 9.84087 6.54931 9.81152 6.54931 9.78168V4.83209C6.54931 4.6817 6.67122 4.55979 6.82161 4.55979H9.40768V3.28906ZM5.04233 12.3203C5.04233 11.6686 5.57062 11.1403 6.2223 11.1403H8.34119C8.9345 12.2619 10.1481 13.0123 11.5257 13.0123C12.9034 13.0123 14.117 12.2619 14.7103 11.1403H17.1673C17.8189 11.1403 18.3472 11.6686 18.3472 12.3203V14.1679C18.3472 14.4042 18.4015 14.6373 18.5058 14.8492L19.9387 17.7613C19.9572 17.7987 19.9667 17.8398 19.9667 17.8815V18.8428C19.9667 18.9932 19.8448 19.1151 19.6944 19.1151H3.69537C3.54498 19.1151 3.42307 18.9932 3.42307 18.8428V17.8815C3.42307 17.8398 3.43264 17.7987 3.45104 17.7613L4.88383 14.8492C4.98811 14.6372 5.04233 14.4042 5.04233 14.168V12.3203ZM4.54992 21.4652V20.3859H18.7476V21.4652C18.7476 21.6156 18.6257 21.7375 18.4753 21.7375H4.82222C4.67183 21.7375 4.54992 21.6156 4.54992 21.4652ZM7.68956 6.22904C7.68956 5.87814 7.97403 5.59367 8.32493 5.59367H10.1221C10.473 5.59367 10.7575 5.87814 10.7575 6.22904C10.7575 6.57994 10.473 6.8644 10.1221 6.8644H8.32493C7.97403 6.8644 7.68956 6.57994 7.68956 6.22904ZM8.32493 7.7281C7.97403 7.7281 7.68956 8.01257 7.68956 8.36347C7.68956 8.71437 7.97403 8.99883 8.32493 8.99883L11.0236 8.99883C11.3745 8.99883 11.659 8.71437 11.659 8.36347C11.659 8.01257 11.3745 7.7281 11.0236 7.7281L8.32493 7.7281ZM6.57897 15.6815C6.57897 15.3306 6.86343 15.0461 7.21434 15.0461H8.52974C8.88064 15.0461 9.1651 15.3306 9.1651 15.6815C9.1651 16.0324 8.88064 16.3169 8.52974 16.3169H7.21434C6.86343 16.3169 6.57897 16.0324 6.57897 15.6815ZM5.087 16.9182C4.7361 16.9182 4.45164 17.2026 4.45164 17.5535C4.45164 17.9044 4.7361 18.1889 5.087 18.1889H6.4024C6.7533 18.1889 7.03777 17.9044 7.03777 17.5535C7.03777 17.2026 6.7533 16.9182 6.4024 16.9182H5.087ZM10.402 15.6815C10.402 15.3306 10.6864 15.0461 11.0373 15.0461H12.3527C12.7036 15.0461 12.9881 15.3306 12.9881 15.6815C12.9881 16.0324 12.7036 16.3169 12.3527 16.3169H11.0373C10.6864 16.3169 10.402 16.0324 10.402 15.6815ZM9.09348 16.9182C8.74258 16.9182 8.45812 17.2026 8.45812 17.5535C8.45812 17.9044 8.74258 18.1889 9.09348 18.1889H10.4089C10.7598 18.1889 11.0442 17.9044 11.0442 17.5535C11.0442 17.2026 10.7598 16.9182 10.4089 16.9182H9.09348ZM14.225 15.6815C14.225 15.3306 14.5094 15.0461 14.8603 15.0461H16.1757C16.5266 15.0461 16.8111 15.3306 16.8111 15.6815C16.8111 16.0324 16.5266 16.3169 16.1757 16.3169H14.8603C14.5094 16.3169 14.225 16.0324 14.225 15.6815ZM13.1 16.9182C12.7491 16.9182 12.4646 17.2026 12.4646 17.5535C12.4646 17.9044 12.7491 18.1889 13.1 18.1889H14.4154C14.7663 18.1889 15.0507 17.9044 15.0507 17.5535C15.0507 17.2026 14.7663 16.9182 14.4154 16.9182H13.1ZM16.4702 17.5535C16.4702 17.2026 16.7547 16.9182 17.1056 16.9182H18.421C18.7719 16.9182 19.0563 17.2026 19.0563 17.5535C19.0563 17.9044 18.7719 18.1889 18.421 18.1889H17.1056C16.7547 18.1889 16.4702 17.9044 16.4702 17.5535ZM16.7556 6.98645C16.6895 7.04316 16.6521 7.12304 16.6521 7.21573C16.6521 7.30836 16.6895 7.38824 16.7556 7.44495C16.8134 7.4946 16.884 7.51862 16.9434 7.5326C17.0402 7.55546 17.1659 7.56334 17.2864 7.5709L17.2872 7.57095L17.3574 7.57549C17.6675 7.59663 17.9674 7.63901 18.1595 7.83544C18.3515 8.03187 18.393 8.33845 18.4137 8.65553L18.4181 8.72738L18.4181 8.72754C18.4255 8.85091 18.4332 8.97976 18.4556 9.07891C18.4693 9.13961 18.4928 9.21182 18.5413 9.27095C18.5968 9.33857 18.6749 9.37671 18.7655 9.37671C18.8561 9.37671 18.9342 9.33857 18.9897 9.27095C19.0383 9.21182 19.0618 9.13961 19.0754 9.07891C19.0978 8.97971 19.1056 8.8508 19.113 8.72738L19.1174 8.65553C19.1381 8.33845 19.1795 8.03187 19.3716 7.83544C19.5637 7.63901 19.8635 7.59663 20.1736 7.57549L20.2439 7.57095L20.2446 7.5709C20.3651 7.56334 20.4909 7.55546 20.5877 7.5326C20.647 7.51862 20.7176 7.4946 20.7755 7.44495C20.8416 7.38824 20.8789 7.30836 20.8789 7.21573C20.8789 7.12304 20.8416 7.04316 20.7755 6.98645C20.7176 6.9368 20.647 6.91278 20.5877 6.8988C20.4909 6.87594 20.3651 6.86806 20.2446 6.8605L20.2446 6.8605L20.2439 6.86046L20.1736 6.85591C19.8635 6.83477 19.5637 6.79239 19.3716 6.59596C19.1795 6.39953 19.1381 6.09295 19.1174 5.77587L19.113 5.70402L19.1129 5.70386C19.1055 5.58049 19.0978 5.45164 19.0754 5.35249C19.0618 5.29179 19.0383 5.21958 18.9897 5.16045C18.9342 5.09283 18.8561 5.05469 18.7655 5.05469C18.6749 5.05469 18.5968 5.09283 18.5413 5.16045C18.4928 5.21958 18.4693 5.29179 18.4556 5.35249C18.4332 5.45169 18.4255 5.5806 18.4181 5.70402L18.4137 5.77587C18.393 6.09295 18.3515 6.39953 18.1595 6.59596C17.9674 6.79239 17.6675 6.83477 17.3574 6.85591L17.2872 6.86046L17.2864 6.8605C17.166 6.86806 17.0402 6.87594 16.9434 6.8988C16.884 6.91278 16.8134 6.9368 16.7556 6.98645Z" fill="#383838"></path></g><defs><clipPath id="clip0_5711_36238"><rect width="24" height="24" fill="white" transform="translate(0.0625 0.132812)"></rect></clipPath></defs></svg>