<svg width="17" height="17" viewBox="0 0 17 17" fill="none" xmlns="http://www.w3.org/2000/svg">
<path d="M0 3C0 2.20435 0.316071 1.44129 0.87868 0.87868C1.44129 0.316071 2.20435 0 3 0H11C11.7956 0 12.5587 0.316071 13.1213 0.87868C13.6839 1.44129 14 2.20435 14 3V6.003C13.659 6.019 13.32 6.095 13 6.232V3C13 2.46957 12.7893 1.96086 12.4142 1.58579C12.0391 1.21071 11.5304 1 11 1H3C2.46957 1 1.96086 1.21071 1.58579 1.58579C1.21071 1.96086 1 2.46957 1 3V12.5C1 12.6326 0.947321 12.7598 0.853553 12.8536C0.759785 12.9473 0.632608 13 0.5 13C0.367392 13 0.240215 12.9473 0.146447 12.8536C0.0526785 12.7598 0 12.6326 0 12.5V3ZM0.4 14.035C0.769 14.219 1.23 14.37 1.617 14.285C1.868 14.229 2.194 14.092 2.56 13.938C3.445 13.565 4.563 13.095 5.422 13.441C6.059 13.697 6.006 14.422 5.827 14.771C5.792 14.837 5.819 14.931 5.892 14.948C6.25772 15.0223 6.63114 15.0519 7.004 15.036C7.00804 14.9888 7.01573 14.942 7.027 14.896L7.402 13.398C7.49791 13.0116 7.69781 12.6588 7.98 12.378L12.81 7.548C12.9832 7.37218 13.1895 7.23238 13.4169 7.13665C13.6444 7.04093 13.8886 6.99118 14.1354 6.99027C14.3821 6.98936 14.6267 7.03731 14.8548 7.13136C15.083 7.2254 15.2903 7.36368 15.4648 7.53822C15.6393 7.71276 15.7775 7.92011 15.8714 8.14832C15.9654 8.37652 16.0132 8.62107 16.0122 8.86786C16.0112 9.11465 15.9614 9.35879 15.8656 9.58623C15.7698 9.81366 15.6299 10.0199 15.454 10.193L10.624 15.022C10.3426 15.3035 9.99008 15.5033 9.604 15.6L8.382 15.905C7.261 16.233 5.588 16.127 5.069 15.722C4.62 15.372 4.602 14.835 4.753 14.478C4.787 14.398 4.727 14.295 4.642 14.308C4.147 14.378 3.742 14.558 3.342 14.735C2.757 14.995 2.186 15.248 1.366 15.146C0.655 15.058 0.259 14.687 0.0409999 14.321C-0.0810001 14.117 0.187 13.929 0.4 14.035Z" fill="white"/>
</svg>
