<svg width="12" height="12" viewBox="0 0 12 12" fill="none" xmlns="http://www.w3.org/2000/svg">
<path d="M1.79999 3.6C1.79999 3.12261 1.98963 2.66478 2.3272 2.32721C2.66476 1.98965 3.1226 1.8 3.59999 1.8H8.39999C8.87738 1.8 9.33521 1.98965 9.67278 2.32721C10.0103 2.66478 10.2 3.12261 10.2 3.6V5.4018C9.99539 5.4114 9.79199 5.457 9.59999 5.5392V3.6C9.59999 3.28174 9.47356 2.97652 9.24852 2.75147C9.02347 2.52643 8.71825 2.4 8.39999 2.4H3.59999C3.28173 2.4 2.9765 2.52643 2.75146 2.75147C2.52642 2.97652 2.39999 3.28174 2.39999 3.6V9.3C2.39999 9.37957 2.36838 9.45587 2.31212 9.51214C2.25586 9.5684 2.17955 9.6 2.09999 9.6C2.02042 9.6 1.94412 9.5684 1.88786 9.51214C1.83159 9.45587 1.79999 9.37957 1.79999 9.3V3.6ZM2.03999 10.221C2.26139 10.3314 2.53799 10.422 2.77019 10.371C2.92079 10.3374 3.11639 10.2552 3.33599 10.1628C3.86699 9.939 4.53779 9.657 5.05319 9.8646C5.43539 10.0182 5.40359 10.4532 5.29619 10.6626C5.27519 10.7022 5.29139 10.7586 5.33519 10.7688C5.55462 10.8134 5.77867 10.8311 6.00239 10.8216C6.00481 10.7933 6.00943 10.7652 6.01619 10.7376L6.24119 9.8388C6.29874 9.60696 6.41867 9.39531 6.58799 9.2268L9.48599 6.3288C9.5899 6.22331 9.71366 6.13943 9.85014 6.082C9.98663 6.02456 10.1331 5.99471 10.2812 5.99417C10.4293 5.99362 10.576 6.02239 10.7129 6.07882C10.8498 6.13524 10.9742 6.21821 11.0789 6.32294C11.1835 6.42766 11.2665 6.55207 11.3228 6.68899C11.3792 6.82592 11.4079 6.97264 11.4073 7.12072C11.4067 7.26879 11.3768 7.41528 11.3193 7.55174C11.2618 7.6882 11.1779 7.81193 11.0724 7.9158L8.17439 10.8132C8.00557 10.9821 7.79403 11.102 7.56239 11.16L6.82919 11.343C6.15659 11.5398 5.15279 11.4762 4.84139 11.2332C4.57199 11.0232 4.56119 10.701 4.65179 10.4868C4.67219 10.4388 4.63619 10.377 4.58519 10.3848C4.28819 10.4268 4.04519 10.5348 3.80519 10.641C3.45419 10.797 3.11159 10.9488 2.61959 10.8876C2.19299 10.8348 1.95539 10.6122 1.82459 10.3926C1.75139 10.2702 1.91219 10.1574 2.03999 10.221Z" fill="white"/>
</svg>
