<svg width="12" height="12" viewBox="0 0 12 12" fill="none" xmlns="http://www.w3.org/2000/svg">
<path d="M6.08401 6.3H4.11421L5.09941 3.489L6.08401 6.3ZM6.39961 7.2L6.59761 7.7664L7.30441 7.0602L5.58001 2.1414C5.42041 1.686 4.77661 1.686 4.61761 2.1414L2.42401 8.4018C2.38454 8.51446 2.39145 8.63819 2.44321 8.74576C2.49497 8.85333 2.58734 8.93594 2.70001 8.9754C2.81267 9.01486 2.9364 9.00796 3.04397 8.9562C3.15154 8.90444 3.23414 8.81206 3.27361 8.6994L3.79801 7.2H6.39961ZM9.48361 5.7288L6.58621 8.6268C6.4173 8.79562 6.29744 9.00715 6.23941 9.2388L6.01501 10.1376C6.00804 10.1652 6.00323 10.1933 6.00061 10.2216C5.77709 10.2311 5.55325 10.2133 5.33401 10.1688C5.29021 10.1586 5.27401 10.1028 5.29441 10.062C5.40241 9.8532 5.43421 9.4182 5.05201 9.264C4.53601 9.057 3.86521 9.339 3.33481 9.5628C3.11521 9.6552 2.91961 9.7368 2.76841 9.7704C2.53621 9.822 2.25961 9.7314 2.03881 9.621C1.91161 9.5574 1.74961 9.6702 1.82281 9.7926C1.95421 10.0122 2.19121 10.2348 2.61841 10.2876C3.11041 10.3488 3.45301 10.1964 3.80341 10.0416C4.04341 9.9348 4.28641 9.8268 4.58341 9.7848C4.63501 9.7776 4.67041 9.8388 4.65061 9.8868C4.55941 10.101 4.57081 10.4232 4.84021 10.6332C5.15101 10.8762 6.15481 10.9398 6.82801 10.743L7.56061 10.56C7.79281 10.5018 8.00461 10.3824 8.17321 10.2132L11.0712 7.3152C11.1767 7.21129 11.2606 7.08753 11.318 6.95104C11.3754 6.81456 11.4053 6.66806 11.4058 6.51999C11.4064 6.37191 11.3776 6.2252 11.3212 6.0883C11.2648 5.95139 11.1818 5.82702 11.0771 5.72233C10.9723 5.61765 10.8479 5.53473 10.711 5.47835C10.5741 5.42198 10.4274 5.39326 10.2793 5.39386C10.1312 5.39447 9.98473 5.42437 9.84827 5.48186C9.71181 5.53934 9.58808 5.62327 9.48421 5.7288" fill="white"/>
</svg>
