<svg width="12" height="12" viewBox="0 0 12 12" fill="none" xmlns="http://www.w3.org/2000/svg">
<path d="M3.8345 7.4615C3.9288 7.37042 4.0551 7.32002 4.1862 7.32116C4.3173 7.3223 4.44271 7.37489 4.53541 7.46759C4.62811 7.5603 4.6807 7.6857 4.68184 7.8168C4.68298 7.9479 4.63258 8.0742 4.5415 8.1685L3.2075 9.502H4C4.12254 9.50203 4.24081 9.54706 4.33234 9.62854C4.42387 9.71003 4.48229 9.82228 4.4965 9.944L4.5 10.002C4.5 10.1346 4.44732 10.2618 4.35355 10.3556C4.25979 10.4493 4.13261 10.502 4 10.502H2C1.86739 10.502 1.74021 10.4493 1.64645 10.3556C1.55268 10.2618 1.5 10.1346 1.5 10.002V8.002C1.5 7.86939 1.55268 7.74221 1.64645 7.64845C1.74021 7.55468 1.86739 7.502 2 7.502C2.13261 7.502 2.25979 7.55468 2.35355 7.64845C2.44732 7.74221 2.5 7.86939 2.5 8.002V8.7955L3.8345 7.4615ZM8.0025 10.502C7.86989 10.502 7.74271 10.4493 7.64895 10.3556C7.55518 10.2618 7.5025 10.1346 7.5025 10.002C7.5025 9.86939 7.55518 9.74222 7.64895 9.64845C7.74271 9.55468 7.86989 9.502 8.0025 9.502H8.794L7.4615 8.1685C7.37541 8.0824 7.3237 7.96785 7.31606 7.84634C7.30841 7.72483 7.34537 7.6047 7.42 7.5085L7.4615 7.4615C7.55526 7.36776 7.68242 7.31511 7.815 7.31511C7.94758 7.31511 8.07474 7.36776 8.1685 7.4615L9.5025 8.7965V8.002C9.50252 7.87953 9.54748 7.76133 9.62886 7.66981C9.71024 7.5783 9.82237 7.51983 9.944 7.5055L10.0025 7.502C10.1351 7.502 10.2623 7.55468 10.3561 7.64845C10.4498 7.74221 10.5025 7.86939 10.5025 8.002V10.002C10.5025 10.1346 10.4498 10.2618 10.3561 10.3556C10.2623 10.4493 10.1351 10.502 10.0025 10.502H8.0025ZM4 1.5C4.13261 1.5 4.25979 1.55268 4.35355 1.64645C4.44732 1.74021 4.5 1.86739 4.5 2C4.5 2.13261 4.44732 2.25979 4.35355 2.35355C4.25979 2.44732 4.13261 2.5 4 2.5H3.2085L4.541 3.834C4.62709 3.9201 4.6788 4.03465 4.68644 4.15616C4.69408 4.27767 4.65713 4.3978 4.5825 4.494L4.541 4.541C4.44724 4.63474 4.32008 4.68739 4.1875 4.68739C4.05492 4.68739 3.92776 4.63474 3.834 4.541L2.5 3.206V4C2.49998 4.12247 2.45502 4.24067 2.37364 4.33219C2.29226 4.4237 2.18013 4.48217 2.0585 4.4965L2 4.5C1.86739 4.5 1.74021 4.44732 1.64645 4.35355C1.55268 4.25979 1.5 4.13261 1.5 4V2C1.5 1.86739 1.55268 1.74021 1.64645 1.64645C1.74021 1.55268 1.86739 1.5 2 1.5H4ZM10.0025 1.5C10.1351 1.5 10.2623 1.55268 10.3561 1.64645C10.4498 1.74021 10.5025 1.86739 10.5025 2V4C10.5025 4.13261 10.4498 4.25979 10.3561 4.35355C10.2623 4.44732 10.1351 4.5 10.0025 4.5C9.86989 4.5 9.74271 4.44732 9.64895 4.35355C9.55518 4.25979 9.5025 4.13261 9.5025 4V3.206L8.1685 4.541C8.0824 4.62709 7.96785 4.6788 7.84634 4.68644C7.72483 4.69408 7.6047 4.65713 7.5085 4.5825L7.4615 4.541C7.36776 4.44724 7.31511 4.32008 7.31511 4.1875C7.31511 4.05492 7.36776 3.92776 7.4615 3.834L8.7945 2.5H8.0025C7.88003 2.49998 7.76183 2.45502 7.67031 2.37364C7.5788 2.29226 7.52033 2.18013 7.506 2.0585L7.5025 2C7.5025 1.86739 7.55518 1.74021 7.64895 1.64645C7.74271 1.55268 7.86989 1.5 8.0025 1.5H10.0025Z" fill="white"/>
</svg>
