<svg width="20" height="20" viewBox="0 0 20 20" fill="none" xmlns="http://www.w3.org/2000/svg">
<path d="M18.1713 8.368H17.5V8.33341H10V11.6667H14.7096C14.0225 13.6072 12.1763 15.0001 10 15.0001C7.23877 15.0001 5.00002 12.7613 5.00002 10.0001C5.00002 7.23883 7.23877 5.00008 10 5.00008C11.2746 5.00008 12.4342 5.48091 13.3171 6.26633L15.6742 3.90925C14.1859 2.52216 12.195 1.66675 10 1.66675C5.39794 1.66675 1.66669 5.398 1.66669 10.0001C1.66669 14.6022 5.39794 18.3334 10 18.3334C14.6021 18.3334 18.3334 14.6022 18.3334 10.0001C18.3334 9.44133 18.2759 8.89591 18.1713 8.368Z" fill="#FFC107"/>
<path d="M2.62695 6.12133L5.36487 8.12925C6.1057 6.29508 7.89987 5.00008 9.99945 5.00008C11.274 5.00008 12.4336 5.48091 13.3165 6.26633L15.6736 3.90925C14.1853 2.52216 12.1945 1.66675 9.99945 1.66675C6.79862 1.66675 4.02279 3.47383 2.62695 6.12133Z" fill="#FF3D00"/>
<path d="M10.0001 18.3336C12.1526 18.3336 14.1084 17.5099 15.5872 16.1703L13.008 13.9878C12.1433 14.6454 11.0865 15.0011 10.0001 15.0003C7.83261 15.0003 5.99219 13.6182 5.29886 11.6895L2.58136 13.7832C3.96053 16.482 6.76136 18.3336 10.0001 18.3336Z" fill="#4CAF50"/>
<path d="M18.1712 8.36784H17.5V8.33325H10V11.6666H14.7096C14.3809 12.5901 13.7889 13.3971 13.0067 13.9878L13.0079 13.987L15.5871 16.1695C15.4046 16.3353 18.3333 14.1666 18.3333 9.99992C18.3333 9.44117 18.2758 8.89575 18.1712 8.36784Z" fill="#1976D2"/>
</svg>
