<svg width="191" height="28" viewBox="0 0 191 28" fill="none" xmlns="http://www.w3.org/2000/svg">
<rect width="28" height="28" rx="14" fill="#6861F2"/>
<path d="M7.46676 22.4C7.20232 22.4 6.98081 22.3104 6.80223 22.1312C6.62365 21.952 6.53405 21.7305 6.53343 21.4667V19.2033C6.53343 18.9544 6.5801 18.7171 6.67343 18.4912C6.76676 18.2653 6.89899 18.0672 7.0701 17.8967L18.8301 6.16001C19.0168 5.97334 19.2268 5.83334 19.4601 5.74001C19.6934 5.64667 19.9268 5.60001 20.1601 5.60001C20.409 5.60001 20.6464 5.64667 20.8722 5.74001C21.0981 5.83334 21.2963 5.97334 21.4668 6.16001L22.7734 7.46667C22.9601 7.63778 23.1001 7.83627 23.1934 8.06214C23.2868 8.28801 23.3334 8.52507 23.3334 8.77334C23.3334 9.00667 23.2868 9.24001 23.1934 9.47334C23.1001 9.70667 22.9601 9.91667 22.7734 10.1033L11.0368 21.8633C10.8657 22.0344 10.6675 22.1667 10.4422 22.26C10.217 22.3533 9.97961 22.4 9.7301 22.4H7.46676ZM20.2068 10.0567L21.4668 8.79667L20.1368 7.46667L18.8768 8.72667L20.2068 10.0567ZM15.8668 22.4C17.0179 22.4 18.0834 22.1122 19.0634 21.5367C20.0434 20.9611 20.5334 20.16 20.5334 19.1333C20.5334 18.6356 20.409 18.2037 20.1601 17.8379C19.9112 17.472 19.5845 17.1338 19.1801 16.8233C18.9623 16.6678 18.729 16.59 18.4801 16.59C18.2312 16.59 18.0212 16.6833 17.8501 16.87C17.679 17.0567 17.5934 17.2863 17.5934 17.5588C17.5934 17.8313 17.7023 18.0451 17.9201 18.2C18.1379 18.3711 18.3168 18.5267 18.4568 18.6667C18.5968 18.8067 18.6668 18.9622 18.6668 19.1333C18.6668 19.4911 18.3827 19.814 17.8146 20.1021C17.2465 20.3902 16.5973 20.534 15.8668 20.5333C15.6023 20.5333 15.3808 20.6229 15.2022 20.8021C15.0237 20.9813 14.9341 21.2028 14.9334 21.4667C14.9334 21.7311 15.023 21.9529 15.2022 22.1321C15.3814 22.3113 15.6029 22.4006 15.8668 22.4ZM11.2001 8.40001C11.2001 8.61778 11.0641 8.81627 10.7922 8.99547C10.5203 9.17467 9.89405 9.48952 8.91343 9.94001C7.66899 10.4844 6.80565 10.9785 6.32343 11.4221C5.84121 11.8658 5.6001 12.414 5.6001 13.0667C5.6001 13.4711 5.69343 13.8289 5.8801 14.14C6.06676 14.4511 6.30788 14.7233 6.60343 14.9567C6.80565 15.1278 7.03121 15.2018 7.2801 15.1788C7.52899 15.1558 7.73899 15.0428 7.9101 14.84C8.08121 14.6378 8.15899 14.4122 8.14343 14.1633C8.12787 13.9144 8.01899 13.7044 7.81676 13.5333C7.70788 13.4556 7.62232 13.3778 7.5601 13.3C7.49787 13.2222 7.46676 13.1444 7.46676 13.0667C7.46676 12.88 7.60676 12.6933 7.88676 12.5067C8.16676 12.32 8.75787 12.0322 9.6601 11.6433C11.029 11.0522 11.939 10.5156 12.3901 10.0333C12.8412 9.55112 13.0668 9.00667 13.0668 8.40001C13.0668 7.54445 12.7245 6.86405 12.0401 6.35881C11.3557 5.85356 10.4534 5.60063 9.33343 5.60001C8.63343 5.60001 8.00716 5.72445 7.45463 5.97334C6.9021 6.22223 6.47836 6.52556 6.18343 6.88334C6.01232 7.08556 5.94232 7.31112 5.97343 7.56001C6.00454 7.80889 6.12121 8.01112 6.32343 8.16667C6.52565 8.33778 6.75121 8.40778 7.0001 8.37667C7.24899 8.34556 7.45899 8.24445 7.6301 8.07334C7.84788 7.85556 8.08899 7.70001 8.35343 7.60667C8.61787 7.51334 8.94454 7.46667 9.33343 7.46667C9.97121 7.46667 10.4419 7.56001 10.7456 7.74667C11.0492 7.93334 11.2007 8.15112 11.2001 8.40001Z" fill="white"/>
<path d="M48.2278 20L47.6153 18.04H42.4703L41.8753 20H39.4253L43.2753 7.4H46.8278L50.6778 20H48.2278ZM43.1528 15.8H46.9328L45.0253 9.64L43.1528 15.8ZM51.998 7.4H54.378V20H51.998V7.4ZM69.2235 15.6425L71.586 16.325C71.3585 16.9725 71.026 17.62 70.5535 18.1975C69.3985 19.5975 67.666 20.2625 65.916 20.2625C64.061 20.2625 62.3285 19.51 61.2785 18.1975C60.2285 16.92 59.791 15.3625 59.791 13.7C59.791 11.9675 60.246 10.4275 61.2785 9.185C62.381 7.8025 64.096 7.1375 65.916 7.1375C67.736 7.1375 69.4335 7.82 70.5535 9.185C71.1135 9.885 71.481 10.6725 71.7085 11.425L69.2585 11.845C69.1185 11.4075 68.9435 10.9875 68.6635 10.6375C68.0335 9.7975 66.9835 9.36 65.916 9.36C64.831 9.36 63.781 9.7975 63.1685 10.6375C62.521 11.46 62.3285 12.5975 62.311 13.7C62.3285 14.8025 62.521 15.9225 63.1685 16.7625C63.781 17.6025 64.831 18.04 65.916 18.0225C66.9835 18.04 68.0335 17.6025 68.6635 16.7625C68.9085 16.43 69.101 16.045 69.2235 15.6425ZM77.8903 20.2625C76.4903 20.2625 75.1428 19.72 74.2678 18.6875C73.4628 17.7075 73.1128 16.57 73.1128 15.275C73.1128 13.945 73.5153 12.7725 74.2678 11.8625C75.1428 10.83 76.5078 10.2875 77.8903 10.2875C79.2903 10.2875 80.6378 10.8125 81.5128 11.8625C82.3528 12.86 82.6853 13.9975 82.6853 15.275C82.6853 16.6225 82.3178 17.69 81.5128 18.6875C80.6203 19.7375 79.3078 20.2625 77.8903 20.2625ZM79.6228 17.235C80.0253 16.71 80.1653 15.9925 80.1653 15.275C80.1653 14.5575 80.0253 13.8225 79.6228 13.2975C79.2378 12.7725 78.5903 12.51 77.8903 12.51C77.1903 12.51 76.5428 12.7725 76.1578 13.2975C75.7553 13.8225 75.6328 14.5575 75.6328 15.275C75.6328 15.9925 75.7553 16.71 76.1578 17.235C76.5428 17.76 77.1903 18.04 77.8903 18.04C78.5903 18.04 79.2378 17.76 79.6228 17.235ZM92.1911 11.3375C93.3111 12.37 93.4686 13.63 93.4686 15.275V20H91.0536V15.275C91.0536 14.4175 90.9136 13.6125 90.4236 13.1225C90.0911 12.7725 89.5836 12.5975 88.9361 12.5975C88.4986 12.615 88.1311 12.7375 87.8161 12.965C87.4661 13.2275 87.2211 13.6475 87.1161 14.1725C87.0286 14.5925 87.0111 15.24 87.0111 15.8875V20H84.6136V10.55H86.7136V11.1975C87.4661 10.6025 88.4111 10.3225 89.2686 10.2875C90.3186 10.2525 91.4386 10.655 92.1911 11.3375ZM101.593 12.3875H98.863V15.8175C98.863 16.5525 98.8805 17.095 99.0905 17.4275C99.3005 17.76 99.6855 17.97 100.053 18.005C100.508 18.04 101.085 18.0225 101.593 17.9525V20C100.84 20.21 99.528 20.245 98.828 20.0525C97.9705 19.8075 97.3055 19.3875 96.938 18.6875C96.5355 17.935 96.483 17.025 96.483 15.9925V12.3875H94.523V10.55H96.483V7.925H98.863V10.55H101.593V12.3875ZM105.742 15.9225C105.812 16.4125 105.952 16.8675 106.232 17.235C106.617 17.76 107.264 18.04 107.947 18.04C108.647 18.04 109.277 17.76 109.679 17.235C109.749 17.13 109.784 17.025 109.854 16.9375L112.217 17.97C112.059 18.2325 111.867 18.495 111.657 18.74C110.712 19.79 109.347 20.3325 107.947 20.2625C106.547 20.1925 105.199 19.7375 104.324 18.6875C103.519 17.7075 103.134 16.5175 103.169 15.275C103.204 13.9625 103.537 12.8075 104.324 11.8625C105.199 10.83 106.547 10.2875 107.947 10.2875C109.347 10.2875 110.694 10.8125 111.569 11.8625C112.357 12.8075 112.724 14.015 112.724 15.275C112.724 15.485 112.707 15.7125 112.689 15.9225H105.742ZM107.947 12.51C107.264 12.51 106.617 12.7725 106.232 13.315C106.057 13.5425 105.934 13.805 105.847 14.085H110.047C109.959 13.805 109.837 13.5425 109.679 13.315C109.277 12.7725 108.647 12.51 107.947 12.51ZM122.231 11.3375C123.351 12.37 123.508 13.63 123.508 15.275V20H121.093V15.275C121.093 14.4175 120.953 13.6125 120.463 13.1225C120.131 12.7725 119.623 12.5975 118.976 12.5975C118.538 12.615 118.171 12.7375 117.856 12.965C117.506 13.2275 117.261 13.6475 117.156 14.1725C117.068 14.5925 117.051 15.24 117.051 15.8875V20H114.653V10.55H116.753V11.1975C117.506 10.6025 118.451 10.3225 119.308 10.2875C120.358 10.2525 121.478 10.655 122.231 11.3375ZM131.633 12.3875H128.903V15.8175C128.903 16.5525 128.92 17.095 129.13 17.4275C129.34 17.76 129.725 17.97 130.093 18.005C130.548 18.04 131.125 18.0225 131.633 17.9525V20C130.88 20.21 129.568 20.245 128.868 20.0525C128.01 19.8075 127.345 19.3875 126.978 18.6875C126.575 17.935 126.523 17.025 126.523 15.9925V12.3875H124.563V10.55H126.523V7.925H128.903V10.55H131.633V12.3875ZM147.139 7.4H149.641L145.949 20H143.604L141.154 11.67L138.721 20H136.376L132.684 7.4H135.186L137.549 15.8875L139.894 7.4175L142.396 7.4L144.759 15.8875L147.139 7.4ZM155.803 10.305C156.31 10.27 156.853 10.3575 157.378 10.5675V12.7725C156.888 12.58 156.24 12.475 155.558 12.5275C154.875 12.58 154.385 12.825 154.053 13.175C153.633 13.63 153.44 14.26 153.44 14.96V20H151.043V10.55H153.143V11.845C153.388 11.425 153.72 11.0575 154.158 10.795C154.665 10.48 155.243 10.34 155.803 10.305ZM159.207 7.1375H161.587V9.2375H159.207V7.1375ZM159.207 10.55H161.587V20H159.207V10.55ZM170.237 12.3875H167.507V15.8175C167.507 16.5525 167.524 17.095 167.734 17.4275C167.944 17.76 168.329 17.97 168.697 18.005C169.152 18.04 169.729 18.0225 170.237 17.9525V20C169.484 20.21 168.172 20.245 167.472 20.0525C166.614 19.8075 165.949 19.3875 165.582 18.6875C165.179 17.935 165.127 17.025 165.127 15.9925V12.3875H163.167V10.55H165.127V7.925H167.507V10.55H170.237V12.3875ZM174.385 15.9225C174.455 16.4125 174.595 16.8675 174.875 17.235C175.26 17.76 175.908 18.04 176.59 18.04C177.29 18.04 177.92 17.76 178.323 17.235C178.393 17.13 178.428 17.025 178.498 16.9375L180.86 17.97C180.703 18.2325 180.51 18.495 180.3 18.74C179.355 19.79 177.99 20.3325 176.59 20.2625C175.19 20.1925 173.843 19.7375 172.968 18.6875C172.163 17.7075 171.778 16.5175 171.813 15.275C171.848 13.9625 172.18 12.8075 172.968 11.8625C173.843 10.83 175.19 10.2875 176.59 10.2875C177.99 10.2875 179.338 10.8125 180.213 11.8625C181 12.8075 181.368 14.015 181.368 15.275C181.368 15.485 181.35 15.7125 181.333 15.9225H174.385ZM176.59 12.51C175.908 12.51 175.26 12.7725 174.875 13.315C174.7 13.5425 174.578 13.805 174.49 14.085H178.69C178.603 13.805 178.48 13.5425 178.323 13.315C177.92 12.7725 177.29 12.51 176.59 12.51ZM188.057 10.305C188.565 10.27 189.107 10.3575 189.632 10.5675V12.7725C189.142 12.58 188.495 12.475 187.812 12.5275C187.13 12.58 186.64 12.825 186.307 13.175C185.887 13.63 185.695 14.26 185.695 14.96V20H183.297V10.55H185.397V11.845C185.642 11.425 185.975 11.0575 186.412 10.795C186.92 10.48 187.497 10.34 188.057 10.305Z" fill="#111729"/>
</svg>
