<svg width="157" height="23" viewBox="0 0 157 23" fill="none" xmlns="http://www.w3.org/2000/svg">
<rect y="0.0319824" width="22.9359" height="22.9359" rx="11.4679" fill="white"/>
<path d="M6.1167 18.3802C5.90009 18.3802 5.71864 18.3068 5.57236 18.16C5.42608 18.0132 5.35268 17.8317 5.35217 17.6156V15.7617C5.35217 15.5578 5.3904 15.3633 5.46685 15.1783C5.54331 14.9933 5.65162 14.831 5.79178 14.6913L15.4248 5.07737C15.5777 4.92446 15.7498 4.80978 15.9409 4.73333C16.132 4.65688 16.3232 4.61865 16.5143 4.61865C16.7182 4.61865 16.9126 4.65688 17.0976 4.73333C17.2826 4.80978 17.445 4.92446 17.5846 5.07737L18.655 6.14771C18.8079 6.28787 18.9226 6.45046 18.999 6.63548C19.0755 6.82049 19.1137 7.01468 19.1137 7.21805C19.1137 7.40918 19.0755 7.60031 18.999 7.79145C18.9226 7.98258 18.8079 8.1546 18.655 8.3075L9.04102 17.9406C8.90086 18.0807 8.73853 18.189 8.55402 18.2655C8.36951 18.3419 8.17507 18.3802 7.97069 18.3802H6.1167ZM16.5525 8.26928L17.5846 7.23716L16.4952 6.14771L15.4631 7.17982L16.5525 8.26928ZM12.9975 18.3802C13.9404 18.3802 14.8132 18.1444 15.616 17.673C16.4187 17.2015 16.8201 16.5453 16.8201 15.7043C16.8201 15.2966 16.7182 14.9428 16.5143 14.6431C16.3104 14.3435 16.0428 14.0664 15.7115 13.8121C15.5331 13.6847 15.342 13.621 15.1381 13.621C14.9343 13.621 14.7622 13.6974 14.6221 13.8503C14.4819 14.0032 14.4118 14.1913 14.4118 14.4146C14.4118 14.6378 14.501 14.8129 14.6794 14.9398C14.8578 15.08 15.0043 15.2074 15.119 15.3221C15.2337 15.4367 15.291 15.5642 15.291 15.7043C15.291 15.9974 15.0584 16.2619 14.593 16.4979C14.1277 16.7339 13.5958 16.8516 12.9975 16.8511C12.7808 16.8511 12.5994 16.9245 12.4531 17.0713C12.3068 17.2181 12.2334 17.3995 12.2329 17.6156C12.2329 17.8323 12.3063 18.014 12.4531 18.1607C12.5999 18.3075 12.7814 18.3807 12.9975 18.3802ZM9.17482 6.91224C9.17482 7.09063 9.06345 7.25322 8.84072 7.40001C8.61799 7.5468 8.10499 7.8047 7.30172 8.17371C6.28235 8.61969 5.57516 9.02438 5.18016 9.38778C4.78515 9.75119 4.58765 10.2002 4.58765 10.7349C4.58765 11.0662 4.6641 11.3592 4.817 11.6141C4.96991 11.8689 5.16741 12.0919 5.40951 12.2831C5.57516 12.4232 5.75992 12.4839 5.9638 12.465C6.16767 12.4461 6.33969 12.3536 6.47985 12.1875C6.62002 12.0218 6.68373 11.8371 6.67099 11.6332C6.65824 11.4293 6.56905 11.2573 6.4034 11.1171C6.31421 11.0534 6.24412 10.9897 6.19316 10.926C6.14219 10.8623 6.1167 10.7986 6.1167 10.7349C6.1167 10.582 6.23138 10.4291 6.46074 10.2762C6.6901 10.1233 7.1743 9.88753 7.91335 9.56897C9.03465 9.08477 9.78007 8.64517 10.1496 8.25016C10.5191 7.85516 10.7039 7.40918 10.7039 6.91224C10.7039 6.21142 10.4235 5.65408 9.86289 5.24021C9.30224 4.82635 8.56319 4.61916 7.64576 4.61865C7.07236 4.61865 6.55937 4.72059 6.10676 4.92446C5.65416 5.12834 5.30707 5.37681 5.06548 5.66988C4.92531 5.83553 4.86797 6.02029 4.89346 6.22416C4.91894 6.42804 5.01451 6.59368 5.18016 6.72111C5.3458 6.86127 5.53056 6.91861 5.73444 6.89312C5.93831 6.86764 6.11033 6.78482 6.2505 6.64465C6.42889 6.46626 6.62639 6.33884 6.84301 6.26239C7.05962 6.18594 7.32721 6.14771 7.64576 6.14771C8.16819 6.14771 8.55376 6.22416 8.80249 6.37707C9.05122 6.52997 9.17533 6.70836 9.17482 6.91224Z" fill="black"/>
<path d="M39.6605 16.9998L39.1588 15.3942H34.9443L34.457 16.9998H32.4501L35.6037 6.67862H38.5137L41.6674 16.9998H39.6605ZM35.5034 13.5594H38.5997L37.0372 8.51349L35.5034 13.5594ZM42.7488 6.67862H44.6984V16.9998H42.7488V6.67862ZM56.8588 13.4304L58.7941 13.9894C58.6077 14.5198 58.3353 15.0502 57.9483 15.5233C57.0022 16.6701 55.583 17.2148 54.1495 17.2148C52.63 17.2148 51.2109 16.5984 50.3508 15.5233C49.4907 14.4768 49.1323 13.201 49.1323 11.8392C49.1323 10.42 49.505 9.15856 50.3508 8.14078C51.2539 7.00832 52.6587 6.46359 54.1495 6.46359C55.6404 6.46359 57.0309 7.02266 57.9483 8.14078C58.407 8.71418 58.708 9.35925 58.8944 9.97565L56.8875 10.3197C56.7728 9.96131 56.6295 9.61728 56.4001 9.33058C55.8841 8.6425 55.024 8.28413 54.1495 8.28413C53.2608 8.28413 52.4007 8.6425 51.899 9.33058C51.3686 10.0043 51.2109 10.9361 51.1965 11.8392C51.2109 12.7423 51.3686 13.6597 51.899 14.3478C52.4007 15.0359 53.2608 15.3942 54.1495 15.3799C55.024 15.3942 55.8841 15.0359 56.4001 14.3478C56.6008 14.0754 56.7585 13.7601 56.8588 13.4304ZM63.9582 17.2148C62.8114 17.2148 61.7076 16.7704 60.9909 15.9246C60.3315 15.1219 60.0448 14.1901 60.0448 13.1293C60.0448 12.0399 60.3745 11.0794 60.9909 10.334C61.7076 9.48826 62.8257 9.04388 63.9582 9.04388C65.105 9.04388 66.2088 9.47393 66.9255 10.334C67.6136 11.1511 67.886 12.0829 67.886 13.1293C67.886 14.2331 67.5849 15.1075 66.9255 15.9246C66.1945 16.7847 65.1193 17.2148 63.9582 17.2148ZM65.3774 14.7348C65.7071 14.3048 65.8217 13.7171 65.8217 13.1293C65.8217 12.5416 65.7071 11.9395 65.3774 11.5095C65.062 11.0794 64.5316 10.8644 63.9582 10.8644C63.3848 10.8644 62.8544 11.0794 62.539 11.5095C62.2093 11.9395 62.109 12.5416 62.109 13.1293C62.109 13.7171 62.2093 14.3048 62.539 14.7348C62.8544 15.1649 63.3848 15.3942 63.9582 15.3942C64.5316 15.3942 65.062 15.1649 65.3774 14.7348ZM75.6725 9.90397C76.59 10.7497 76.719 11.7818 76.719 13.1293V16.9998H74.7407V13.1293C74.7407 12.4269 74.6261 11.7675 74.2247 11.3661C73.9523 11.0794 73.5366 10.9361 73.0062 10.9361C72.6478 10.9504 72.3468 11.0508 72.0888 11.2371C71.8021 11.4521 71.6014 11.7962 71.5154 12.2262C71.4437 12.5703 71.4294 13.1007 71.4294 13.6311V16.9998H69.4655V9.2589H71.1857V9.78929C71.8021 9.30191 72.5762 9.07255 73.2786 9.04388C74.1387 9.01521 75.0561 9.34491 75.6725 9.90397ZM83.374 10.7641H81.1377V13.5737C81.1377 14.1758 81.152 14.6202 81.3241 14.8925C81.4961 15.1649 81.8114 15.3369 82.1125 15.3656C82.4852 15.3942 82.9582 15.3799 83.374 15.3226V16.9998C82.7575 17.1718 81.6824 17.2004 81.109 17.0428C80.4066 16.8421 79.8619 16.498 79.5609 15.9246C79.2312 15.3082 79.1882 14.5628 79.1882 13.7171V10.7641H77.5826V9.2589H79.1882V7.10867H81.1377V9.2589H83.374V10.7641ZM86.7722 13.6597C86.8296 14.0611 86.9442 14.4338 87.1736 14.7348C87.489 15.1649 88.0194 15.3942 88.5784 15.3942C89.1518 15.3942 89.6679 15.1649 89.9976 14.7348C90.0549 14.6488 90.0836 14.5628 90.1409 14.4911L92.0761 15.3369C91.9471 15.5519 91.7894 15.767 91.6174 15.9676C90.8433 16.8277 89.7252 17.2721 88.5784 17.2148C87.4316 17.1574 86.3278 16.7847 85.6111 15.9246C84.9517 15.1219 84.6363 14.1471 84.665 13.1293C84.6937 12.0542 84.966 11.1081 85.6111 10.334C86.3278 9.48826 87.4316 9.04388 88.5784 9.04388C89.7252 9.04388 90.829 9.47393 91.5457 10.334C92.1908 11.1081 92.4919 12.0972 92.4919 13.1293C92.4919 13.3013 92.4775 13.4877 92.4632 13.6597H86.7722ZM88.5784 10.8644C88.0194 10.8644 87.489 11.0794 87.1736 11.5238C87.0302 11.7102 86.9299 11.9252 86.8582 12.1546H90.2986C90.2269 11.9252 90.1266 11.7102 89.9976 11.5238C89.6679 11.0794 89.1518 10.8644 88.5784 10.8644ZM100.279 9.90397C101.197 10.7497 101.326 11.7818 101.326 13.1293V16.9998H99.3475V13.1293C99.3475 12.4269 99.2328 11.7675 98.8315 11.3661C98.5591 11.0794 98.1434 10.9361 97.613 10.9361C97.2546 10.9504 96.9536 11.0508 96.6956 11.2371C96.4089 11.4521 96.2082 11.7962 96.1222 12.2262C96.0505 12.5703 96.0362 13.1007 96.0362 13.6311V16.9998H94.0723V9.2589H95.7925V9.78929C96.4089 9.30191 97.1829 9.07255 97.8854 9.04388C98.7455 9.01521 99.6629 9.34491 100.279 9.90397ZM107.981 10.7641H105.744V13.5737C105.744 14.1758 105.759 14.6202 105.931 14.8925C106.103 15.1649 106.418 15.3369 106.719 15.3656C107.092 15.3942 107.565 15.3799 107.981 15.3226V16.9998C107.364 17.1718 106.289 17.2004 105.716 17.0428C105.013 16.8421 104.469 16.498 104.168 15.9246C103.838 15.3082 103.795 14.5628 103.795 13.7171V10.7641H102.189V9.2589H103.795V7.10867H105.744V9.2589H107.981V10.7641ZM120.682 6.67862H122.732L119.708 16.9998H117.787L115.78 10.1763L113.787 16.9998H111.866L108.842 6.67862H110.892L112.827 13.6311L114.748 6.69295L116.798 6.67862L118.733 13.6311L120.682 6.67862ZM127.779 9.05821C128.195 9.02954 128.639 9.10122 129.069 9.27324V11.0794C128.668 10.9218 128.137 10.8357 127.578 10.8787C127.019 10.9218 126.618 11.1224 126.346 11.4091C126.002 11.7818 125.844 12.2979 125.844 12.8713V16.9998H123.88V9.2589H125.6V10.3197C125.801 9.97565 126.073 9.67461 126.432 9.45959C126.847 9.20156 127.32 9.08688 127.779 9.05821ZM130.568 6.46359H132.518V8.18378H130.568V6.46359ZM130.568 9.2589H132.518V16.9998H130.568V9.2589ZM139.603 10.7641H137.366V13.5737C137.366 14.1758 137.381 14.6202 137.553 14.8925C137.725 15.1649 138.04 15.3369 138.341 15.3656C138.714 15.3942 139.187 15.3799 139.603 15.3226V16.9998C138.986 17.1718 137.911 17.2004 137.338 17.0428C136.635 16.8421 136.091 16.498 135.79 15.9246C135.46 15.3082 135.417 14.5628 135.417 13.7171V10.7641H133.811V9.2589H135.417V7.10867H137.366V9.2589H139.603V10.7641ZM143.001 13.6597C143.058 14.0611 143.173 14.4338 143.402 14.7348C143.718 15.1649 144.248 15.3942 144.807 15.3942C145.381 15.3942 145.897 15.1649 146.226 14.7348C146.284 14.6488 146.312 14.5628 146.37 14.4911L148.305 15.3369C148.176 15.5519 148.018 15.767 147.846 15.9676C147.072 16.8277 145.954 17.2721 144.807 17.2148C143.66 17.1574 142.557 16.7847 141.84 15.9246C141.18 15.1219 140.865 14.1471 140.894 13.1293C140.922 12.0542 141.195 11.1081 141.84 10.334C142.557 9.48826 143.66 9.04388 144.807 9.04388C145.954 9.04388 147.058 9.47393 147.774 10.334C148.42 11.1081 148.721 12.0972 148.721 13.1293C148.721 13.3013 148.706 13.4877 148.692 13.6597H143.001ZM144.807 10.8644C144.248 10.8644 143.718 11.0794 143.402 11.5238C143.259 11.7102 143.159 11.9252 143.087 12.1546H146.527C146.456 11.9252 146.355 11.7102 146.226 11.5238C145.897 11.0794 145.381 10.8644 144.807 10.8644ZM154.2 9.05821C154.616 9.02954 155.06 9.10122 155.49 9.27324V11.0794C155.089 10.9218 154.558 10.8357 153.999 10.8787C153.44 10.9218 153.039 11.1224 152.767 11.4091C152.423 11.7818 152.265 12.2979 152.265 12.8713V16.9998H150.301V9.2589H152.021V10.3197C152.222 9.97565 152.494 9.67461 152.853 9.45959C153.268 9.20156 153.741 9.08688 154.2 9.05821Z" fill="#111729"/>
</svg>
