<svg width="16" height="16" viewBox="0 0 16 16" fill="none" xmlns="http://www.w3.org/2000/svg">
<path d="M7.14002 7.50001H3.85702L5.49902 2.81501L7.14002 7.50001ZM7.66602 9.00001L7.99602 9.94401L9.17402 8.76701L6.30002 0.569006C6.03402 -0.189994 4.96102 -0.189994 4.69602 0.569006L1.04002 11.003C0.974246 11.1908 0.985759 11.397 1.07203 11.5763C1.15829 11.7556 1.31225 11.8932 1.50002 11.959C1.68779 12.0248 1.894 12.0133 2.07329 11.927C2.25257 11.8407 2.39025 11.6868 2.45602 11.499L3.33002 9.00001H7.66602ZM12.806 6.54801L7.97702 11.378C7.69552 11.6594 7.49574 12.0119 7.39902 12.398L7.02502 13.896C7.01341 13.942 7.00539 13.9888 7.00102 14.036C6.62849 14.0518 6.25542 14.0222 5.89002 13.948C5.81702 13.931 5.79002 13.838 5.82402 13.77C6.00402 13.422 6.05702 12.697 5.42002 12.44C4.56002 12.095 3.44202 12.565 2.55802 12.938C2.19202 13.092 1.86602 13.228 1.61402 13.284C1.22702 13.37 0.76602 13.219 0.39802 13.035C0.18602 12.929 -0.0839801 13.117 0.0380199 13.321C0.25702 13.687 0.65202 14.058 1.36402 14.146C2.18402 14.248 2.75502 13.994 3.33902 13.736C3.73902 13.558 4.14402 13.378 4.63902 13.308C4.72502 13.296 4.78402 13.398 4.75102 13.478C4.59902 13.835 4.61802 14.372 5.06702 14.722C5.58502 15.127 7.25802 15.233 8.38002 14.905L9.60102 14.6C9.98802 14.503 10.341 14.304 10.622 14.022L15.452 9.19201C15.6278 9.01882 15.7676 8.81255 15.8634 8.58508C15.9591 8.35761 16.0088 8.11344 16.0097 7.86665C16.0107 7.61986 15.9627 7.37533 15.8687 7.14716C15.7746 6.91899 15.6363 6.7117 15.4618 6.53722C15.2873 6.36275 15.0799 6.22455 14.8517 6.13059C14.6235 6.03663 14.379 5.98878 14.1322 5.98978C13.8854 5.99078 13.6412 6.04062 13.4138 6.13643C13.1864 6.23224 12.9801 6.37212 12.807 6.54801" fill="white"/>
</svg>
