     <svg
            width="24"
            height="24"
            viewBox="0 0 24 24"
            fill="none"
            xmlns="http://www.w3.org/2000/svg"
          >
            <path
              fill-rule="evenodd"
              clip-rule="evenodd"
              d="M9.5 9.33333C10.0948 9.33333 10.641 9.55487 11.0702 9.9248C10.8598 8.74852 10.4786 7.72233 9.99664 6.92665C9.21777 5.6409 8.3738 5.23077 7.78901 5.23077C7.20422 5.23077 6.36024 5.6409 5.58138 6.92665C4.83287 8.16227 4.32747 9.95377 4.32747 12C4.32747 14.0462 4.83287 15.8377 5.58138 17.0733C6.36024 18.3591 7.20422 18.7692 7.78901 18.7692C8.3738 18.7692 9.21777 18.3591 9.99664 17.0733C10.4786 16.2777 10.8598 15.2515 11.0702 14.0752C10.641 14.4451 10.0948 14.6667 9.5 14.6667C8.11929 14.6667 7 13.4728 7 12C7 10.5272 8.11929 9.33333 9.5 9.33333ZM12.2 15.318C11.4363 18.0803 9.74846 20 7.78901 20C5.11255 20 2.94286 16.4183 2.94286 12C2.94286 7.58172 5.11255 4 7.78901 4C9.74846 4 11.4363 5.91973 12.2 8.68201C12.9637 5.91973 14.6515 4 16.611 4C19.2874 4 21.4571 7.58172 21.4571 12C21.4571 16.4183 19.2874 20 16.611 20C14.6515 20 12.9637 18.0803 12.2 15.318ZM19.8621 14.2365C19.6465 15.3454 19.2785 16.3143 18.8186 17.0733C18.0398 18.3591 17.1958 18.7692 16.611 18.7692C16.0262 18.7692 15.1822 18.3591 14.4034 17.0733C13.6548 15.8377 13.1494 14.0462 13.1494 12C13.1494 9.95377 13.6548 8.16227 14.4034 6.92665C15.1822 5.6409 16.0262 5.23077 16.611 5.23077C17.1958 5.23077 18.0398 5.6409 18.8186 6.92665C19.2785 7.68575 19.6465 8.65464 19.8621 9.7635C19.4702 9.49142 19.0024 9.33333 18.5 9.33333C17.1193 9.33333 16 10.5272 16 12C16 13.4728 17.1193 14.6667 18.5 14.6667C19.0024 14.6667 19.4702 14.5086 19.8621 14.2365Z"
              fill="black"
            ></path>
            <path
              d="M11.0702 9.9248L11.0375 9.96268L11.1442 10.0546L11.1194 9.916L11.0702 9.9248ZM9.99664 6.92665L10.0394 6.90075L10.0394 6.90075L9.99664 6.92665ZM5.58138 6.92665L5.53861 6.90075L5.53861 6.90075L5.58138 6.92665ZM5.58138 17.0733L5.53861 17.0993L5.53861 17.0993L5.58138 17.0733ZM9.99664 17.0733L10.0394 17.0993L10.0394 17.0993L9.99664 17.0733ZM11.0702 14.0752L11.1194 14.084L11.1442 13.9454L11.0375 14.0373L11.0702 14.0752ZM12.2 15.318L12.2482 15.3047L12.2 15.1304L12.1518 15.3047L12.2 15.318ZM12.2 8.68201L12.1518 8.69533L12.2 8.86964L12.2482 8.69533L12.2 8.68201ZM18.8186 17.0733L18.8614 17.0993L18.8614 17.0993L18.8186 17.0733ZM19.8621 14.2365L19.9111 14.246L19.9346 14.1253L19.8335 14.1954L19.8621 14.2365ZM14.4034 17.0733L14.3606 17.0993L14.3606 17.0993L14.4034 17.0733ZM14.4034 6.92665L14.4461 6.95256L14.4461 6.95256L14.4034 6.92665ZM18.8186 6.92665L18.8614 6.90075L18.8614 6.90075L18.8186 6.92665ZM19.8621 9.7635L19.8335 9.80457L19.9346 9.87475L19.9111 9.75396L19.8621 9.7635ZM11.1028 9.88693C10.6652 9.5097 10.1075 9.28333 9.5 9.28333V9.38333C10.082 9.38333 10.6168 9.60005 11.0375 9.96268L11.1028 9.88693ZM9.95388 6.95256C10.4322 7.74221 10.8115 8.76241 11.021 9.93361L11.1194 9.916C10.9081 8.73464 10.5251 7.70246 10.0394 6.90075L9.95388 6.95256ZM7.78901 5.28077C8.34992 5.28077 9.18018 5.67534 9.95388 6.95256L10.0394 6.90075C9.25537 5.60647 8.39768 5.18077 7.78901 5.18077V5.28077ZM5.62414 6.95256C6.39784 5.67534 7.2281 5.28077 7.78901 5.28077V5.18077C7.18034 5.18077 6.32265 5.60647 5.53861 6.90075L5.62414 6.95256ZM4.37747 12C4.37747 9.96136 4.88111 8.17915 5.62414 6.95256L5.53861 6.90075C4.78464 8.1454 4.27747 9.94618 4.27747 12H4.37747ZM5.62414 17.0474C4.88111 15.8209 4.37747 14.0386 4.37747 12H4.27747C4.27747 14.0538 4.78464 15.8546 5.53861 17.0993L5.62414 17.0474ZM7.78901 18.7192C7.2281 18.7192 6.39784 18.3247 5.62414 17.0474L5.53861 17.0993C6.32265 18.3935 7.18034 18.8192 7.78901 18.8192V18.7192ZM9.95388 17.0474C9.18018 18.3247 8.34992 18.7192 7.78901 18.7192V18.8192C8.39768 18.8192 9.25537 18.3935 10.0394 17.0993L9.95388 17.0474ZM11.021 14.0664C10.8115 15.2376 10.4322 16.2578 9.95388 17.0474L10.0394 17.0993C10.5251 16.2975 10.9081 15.2654 11.1194 14.084L11.021 14.0664ZM9.5 14.7167C10.1075 14.7167 10.6652 14.4903 11.1028 14.1131L11.0375 14.0373C10.6168 14.4 10.082 14.6167 9.5 14.6167V14.7167ZM6.95 12C6.95 13.4973 8.08868 14.7167 9.5 14.7167V14.6167C8.14989 14.6167 7.05 13.4482 7.05 12H6.95ZM9.5 9.28333C8.08868 9.28333 6.95 10.5027 6.95 12H7.05C7.05 10.5518 8.14989 9.38333 9.5 9.38333V9.28333ZM7.78901 20.05C8.78622 20.05 9.71052 19.5613 10.4796 18.7288C11.2486 17.8964 11.8647 16.7182 12.2482 15.3313L12.1518 15.3047C11.7716 16.68 11.1619 17.8429 10.4062 18.6609C9.6506 19.4788 8.75125 19.95 7.78901 19.95V20.05ZM2.89286 12C2.89286 14.2167 3.43704 16.226 4.3195 17.6828C5.20139 19.1386 6.42655 20.05 7.78901 20.05V19.95C6.47501 19.95 5.27709 19.0705 4.40503 17.6309C3.53352 16.1923 2.99286 14.2016 2.99286 12H2.89286ZM7.78901 3.95C6.42655 3.95 5.20139 4.86141 4.3195 6.31724C3.43704 7.77399 2.89286 9.78327 2.89286 12H2.99286C2.99286 9.79845 3.53352 7.80773 4.40503 6.36905C5.27709 4.92945 6.47501 4.05 7.78901 4.05V3.95ZM12.2482 8.66869C11.8647 7.28177 11.2486 6.1036 10.4796 5.27122C9.71052 4.43868 8.78622 3.95 7.78901 3.95V4.05C8.75125 4.05 9.6506 4.52118 10.4062 5.33908C11.1619 6.15714 11.7716 7.31997 12.1518 8.69533L12.2482 8.66869ZM16.611 3.95C15.6138 3.95 14.6895 4.43868 13.9204 5.27122C13.1514 6.1036 12.5353 7.28177 12.1518 8.66869L12.2482 8.69533C12.6284 7.31997 13.2381 6.15714 13.9938 5.33908C14.7494 4.52118 15.6487 4.05 16.611 4.05V3.95ZM21.5071 12C21.5071 9.78327 20.963 7.77399 20.0805 6.31724C19.1986 4.86141 17.9734 3.95 16.611 3.95V4.05C17.925 4.05 19.1229 4.92945 19.995 6.36905C20.8665 7.80773 21.4071 9.79845 21.4071 12H21.5071ZM16.611 20.05C17.9734 20.05 19.1986 19.1386 20.0805 17.6828C20.963 16.226 21.5071 14.2167 21.5071 12H21.4071C21.4071 14.2016 20.8665 16.1923 19.995 17.6309C19.1229 19.0705 17.925 19.95 16.611 19.95V20.05ZM12.1518 15.3313C12.5353 16.7182 13.1514 17.8964 13.9204 18.7288C14.6895 19.5613 15.6138 20.05 16.611 20.05V19.95C15.6487 19.95 14.7494 19.4788 13.9938 18.6609C13.2381 17.8429 12.6284 16.68 12.2482 15.3047L12.1518 15.3313ZM18.8614 17.0993C19.3247 16.3344 19.6947 15.3598 19.9111 14.246L19.813 14.227C19.5984 15.3309 19.2322 16.2941 18.7759 17.0474L18.8614 17.0993ZM16.611 18.8192C17.2197 18.8192 18.0773 18.3935 18.8614 17.0993L18.7759 17.0474C18.0022 18.3247 17.1719 18.7192 16.611 18.7192V18.8192ZM14.3606 17.0993C15.1446 18.3935 16.0023 18.8192 16.611 18.8192V18.7192C16.0501 18.7192 15.2198 18.3247 14.4461 17.0474L14.3606 17.0993ZM13.0994 12C13.0994 14.0538 13.6066 15.8546 14.3606 17.0993L14.4461 17.0474C13.7031 15.8209 13.1994 14.0386 13.1994 12H13.0994ZM14.3606 6.90075C13.6066 8.1454 13.0994 9.94618 13.0994 12H13.1994C13.1994 9.96136 13.7031 8.17915 14.4461 6.95256L14.3606 6.90075ZM16.611 5.18077C16.0023 5.18077 15.1446 5.60647 14.3606 6.90075L14.4461 6.95256C15.2198 5.67534 16.0501 5.28077 16.611 5.28077V5.18077ZM18.8614 6.90075C18.0773 5.60647 17.2197 5.18077 16.611 5.18077V5.28077C17.1719 5.28077 18.0022 5.67534 18.7759 6.95256L18.8614 6.90075ZM19.9111 9.75396C19.6947 8.64022 19.3247 7.66561 18.8614 6.90075L18.7759 6.95256C19.2322 7.70588 19.5984 8.66905 19.813 9.77304L19.9111 9.75396ZM18.5 9.38333C18.9917 9.38333 19.4496 9.538 19.8335 9.80457L19.8906 9.72243C19.4908 9.44484 19.0131 9.28333 18.5 9.28333V9.38333ZM16.05 12C16.05 10.5518 17.1499 9.38333 18.5 9.38333V9.28333C17.0887 9.28333 15.95 10.5027 15.95 12H16.05ZM18.5 14.6167C17.1499 14.6167 16.05 13.4482 16.05 12H15.95C15.95 13.4973 17.0887 14.7167 18.5 14.7167V14.6167ZM19.8335 14.1954C19.4496 14.462 18.9917 14.6167 18.5 14.6167V14.7167C19.0131 14.7167 19.4908 14.5552 19.8906 14.2776L19.8335 14.1954Z"
              fill="black"
            ></path>
          </svg>