     <svg
            width="24"
            height="24"
            viewBox="0 0 24 24"
            fill="none"
            xmlns="http://www.w3.org/2000/svg"
          >
            <path
              fill-rule="evenodd"
              clip-rule="evenodd"
              d="M8.68121 13.9481V3.65121C8.68121 3.60677 8.67658 3.56326 8.66774 3.52115C8.67658 3.56326 8.68121 3.60676 8.68121 3.65121L8.68121 13.9481ZM7.13849 3.65121V12.8303C5.22436 12.9801 3.71837 14.5444 3.71837 16.4527C3.71837 18.4601 5.38482 20.0868 7.43983 20.0868C7.88634 20.0868 8.31501 20.0099 8.71234 19.8687C9.35208 20.6859 10.6116 21.2 12 21.2C13.3884 21.2 14.6479 20.6859 15.2877 19.8687C15.685 20.0099 16.1137 20.0868 16.5602 20.0868C18.6152 20.0868 20.2816 18.4601 20.2816 16.4527C20.2816 14.5444 18.7756 12.9801 16.8615 12.8303V3.65121C16.8615 3.18111 16.4714 2.8 15.9901 2.8C15.5089 2.8 15.1188 3.18111 15.1188 3.65121V13.9481C15.1188 14.2642 15.381 14.521 15.7051 14.521H16.5602C17.6535 14.521 18.5389 15.3863 18.5389 16.4527C18.5389 17.5191 17.6535 18.3844 16.5602 18.3844C16.2723 18.3844 16.0025 18.3253 15.7596 18.2202L14.5965 17.7168L13.9406 18.7814C13.8671 18.9007 13.6729 19.082 13.3357 19.2347C13.0056 19.3843 12.5565 19.4976 12 19.4976C11.4435 19.4976 10.9944 19.3843 10.6643 19.2347C10.3271 19.082 10.1329 18.9007 10.0594 18.7815L9.40353 17.7168L8.24042 18.2202C7.9975 18.3253 7.72766 18.3844 7.43983 18.3844C6.34651 18.3844 5.46108 17.5191 5.46108 16.4527C5.46108 15.3863 6.34651 14.521 7.43983 14.521H8.29486C8.61899 14.521 8.88121 14.2642 8.88121 13.9481V3.65121C8.88121 3.18111 8.4911 2.8 8.00985 2.8C7.5286 2.8 7.13849 3.18111 7.13849 3.65121Z"
              fill="black"
            ></path>
          </svg>