    <svg
            width="24"
            height="24"
            viewBox="0 0 24 24"
            fill="none"
            xmlns="http://www.w3.org/2000/svg"
          >
            <path
              fill-rule="evenodd"
              clip-rule="evenodd"
              d="M11.6727 0.940262C10.0632 0.940262 7.55968 2.074 6.05603 4.46213C4.50115 6.93166 4.08219 10.6027 6.39537 15.5595C7.73675 18.4339 8.8982 20.2915 10.025 21.4359C11.198 22.6272 12.35 23.0597 13.5709 23.0597C14.9979 23.0597 16.1914 22.6989 17.1192 21.8742C18.0281 21.0663 18.5686 19.9125 18.9081 18.5543C19.0335 18.0528 18.7286 17.5446 18.227 17.4192C17.7255 17.2938 17.2173 17.5987 17.0919 18.1003C16.7987 19.273 16.3902 20.0174 15.8754 20.4749C15.3795 20.9158 14.6747 21.1876 13.5709 21.1876C13.2286 21.1876 12.8892 21.1362 12.5303 20.9794C12.1708 20.8222 11.7868 20.5568 11.359 20.1224C10.4611 19.2104 9.40797 17.588 8.09187 14.7678C5.97601 10.2338 6.50602 7.26114 7.6403 5.45963C8.23174 4.52029 9.00868 3.85767 9.75548 3.43C10.5044 3.00113 11.2159 2.8124 11.6727 2.8124C13.8265 2.8124 16.4312 4.42099 16.4312 7.57089C16.4312 8.08787 16.8503 8.50696 17.3673 8.50696C17.8843 8.50696 18.3034 8.08787 18.3034 7.57089C18.3034 3.12687 14.5795 0.940262 11.6727 0.940262ZM12.6353 7.45575C12.6034 7.49452 12.5973 7.54223 12.5985 7.55203L12.5986 7.55245L12.5989 7.55365L12.6018 7.55731L12.6035 7.55935L12.675 7.48954L12.6087 7.55605L12.6481 7.52078L12.6779 7.49258L12.6593 7.51082L12.6788 7.49352L12.6788 7.4935L12.6779 7.49258L12.6779 7.49258L12.675 7.48954L12.675 7.48954C12.6723 7.48689 12.6686 7.48331 12.6637 7.47894C12.6562 7.47232 12.6468 7.46445 12.6353 7.45575ZM11.883 5.54938C10.8526 5.6588 9.79586 6.34879 8.78293 7.8063C8.4879 8.23082 8.59288 8.81414 9.0174 9.10917C9.44192 9.4042 10.0252 9.29923 10.3203 8.8747C11.1612 7.66474 11.7924 7.44167 12.0807 7.41105C12.2343 7.39475 12.3565 7.42335 12.449 7.46321C12.4966 7.48373 12.5356 7.50704 12.5647 7.52792C12.5791 7.53823 12.5899 7.54712 12.5971 7.55358C12.6007 7.55676 12.6031 7.55907 12.6044 7.56037L12.6052 7.56126C12.9489 7.94654 13.5397 7.98091 13.9257 7.63781C14.3121 7.29434 14.3469 6.70268 14.0034 6.31629C13.6513 5.92011 12.8937 5.44206 11.883 5.54938ZM11.8231 15.7087C11.3115 14.6305 11.3164 13.2478 12.1401 11.6201C12.3735 11.1588 12.9367 10.9741 13.3979 11.2076C13.8592 11.441 14.0439 12.0041 13.8105 12.4654C13.1888 13.694 13.3025 14.4594 13.5145 14.9061C13.7484 15.3991 14.1961 15.704 14.5214 15.8206C15.0081 15.995 15.2612 16.5309 15.0868 17.0176C14.9124 17.5042 14.3765 17.7574 13.8898 17.583C13.203 17.3368 12.3127 16.7406 11.8231 15.7087Z"
              fill="black"
            ></path>
          </svg>