 <svg
            width="24"
            height="24"
            viewBox="0 0 24 24"
            fill="none"
            xmlns="http://www.w3.org/2000/svg"
          >
            <path
              fill-rule="evenodd"
              clip-rule="evenodd"
              d="M21.9306 5.41506C21.676 5.00367 21.136 4.87663 20.7246 5.1313C18.4264 6.55401 15.2422 7.29656 12 7.29656C8.75777 7.29656 5.57358 6.55401 3.27535 5.1313C2.86397 4.87663 2.32403 5.00367 2.06936 5.41506C1.81469 5.82644 1.94174 6.36638 2.35312 6.62105C3.25218 7.1776 4.25274 7.63608 5.31807 7.99892C4.94715 9.82469 4.79837 12.2466 5.44642 14.3617C5.82652 15.6023 6.49396 16.7776 7.59131 17.6404C8.69502 18.5082 10.1578 18.9999 12.016 18.9999C13.8412 18.9999 15.2831 18.483 16.374 17.5914C17.4548 16.708 18.1234 15.5126 18.5135 14.2631C19.1745 12.1453 19.0782 9.74217 18.7189 7.98629C19.7704 7.62546 20.7582 7.17117 21.6469 6.62105C22.0583 6.36638 22.1853 5.82644 21.9306 5.41506ZM12.8761 9.0319V13.531C12.8761 14.0148 12.4839 14.407 12 14.407C11.5162 14.407 11.124 14.0148 11.124 13.531V9.03191C9.72837 8.97846 8.33613 8.7969 7.00814 8.48318C6.69567 10.1029 6.60039 12.1471 7.12165 13.8484C7.42561 14.8405 7.92577 15.6745 8.67424 16.263C9.41635 16.8465 10.4776 17.2478 12.016 17.2478C13.4932 17.2478 14.5281 16.8373 15.2652 16.2348C16.0126 15.6239 16.5234 14.7584 16.841 13.741C17.3792 12.0166 17.3195 9.98781 17.0297 8.47421C15.6903 8.79344 14.2849 8.97795 12.8761 9.0319Z"
              fill="black"
            ></path>
          </svg>