         <svg
            width="24"
            height="26"
            viewBox="0 0 24 26"
            fill="none"
            xmlns="http://www.w3.org/2000/svg"
          >
            <g clip-path="url(#clip0_1029_2554)">
              <mask id="path-1-inside-1_1029_2554" fill="white">
                <path
                  fill-rule="evenodd"
                  clip-rule="evenodd"
                  d="M17.1917 6.47316C17.5986 6.88008 18.2583 6.88008 18.6652 6.47316L21.1113 4.02707C21.5183 3.62015 21.5183 2.96041 21.1113 2.55349C20.7044 2.14657 20.0447 2.14657 19.6377 2.55349L17.1917 4.99958C16.7847 5.4065 16.7847 6.06624 17.1917 6.47316ZM15.8956 7.81151C15.1703 7.08625 14.2835 6.98384 13.5058 7.20696C12.7863 7.41338 12.1564 7.88977 11.6972 8.34898L6.8683 13.1778C6.83026 12.9511 6.78233 12.7218 6.72255 12.4951C6.45496 11.4803 5.86279 10.2114 4.52958 9.78745C3.65832 9.5104 2.87973 9.68169 2.32148 10.0155C2.04961 10.178 1.81911 10.3852 1.65077 10.6117C1.52434 10.7819 1.32868 11.1038 1.34283 11.5003L1.18922 17.6254C1.18804 17.6724 1.19046 17.7194 1.19646 17.766C1.35827 19.0234 2.39342 20.9513 4.5874 23.1453L4.63635 23.1942C5.31573 23.8737 5.92762 24.4856 6.5088 24.9016C7.13406 25.3491 7.83242 25.651 8.67001 25.5538C9.45263 25.4629 10.2029 25.0375 10.991 24.4287C11.7911 23.8107 12.7394 22.9151 13.921 21.7334C14.5192 21.1352 14.7747 20.4177 14.7593 19.6759C14.7447 18.9711 14.4884 18.2944 14.1658 17.7024C13.6886 16.8266 12.9804 15.9852 12.3318 15.2942L15.5055 12.1206C16.0178 11.6083 16.4565 10.9254 16.6059 10.1669C16.7631 9.36874 16.5886 8.50455 15.8956 7.81151ZM14.0135 8.97671C14.1419 8.93988 14.2418 8.9332 14.3283 8.9525C14.4135 8.97153 14.4991 9.01877 14.5937 9.1134C14.7016 9.22123 14.7641 9.32912 14.7948 9.43956C14.8257 9.55059 14.8268 9.67245 14.7995 9.81114C14.7384 10.121 14.5313 10.491 14.2036 10.8187L10.3883 14.634C10.2156 14.8066 10.1186 15.0408 10.1186 15.2849C10.1186 15.5291 10.2156 15.7632 10.3883 15.9359C11.1637 16.7114 12.048 17.6637 12.5491 18.5834C12.7979 19.0399 12.9124 19.4184 12.9186 19.7141C12.9239 19.9726 12.8501 20.2006 12.6192 20.4316C11.4399 21.6108 10.5639 22.4322 9.86548 22.9717C9.15495 23.5205 8.73254 23.693 8.45762 23.7249C8.23727 23.7505 7.99302 23.6998 7.5804 23.4044C7.13714 23.0872 6.63069 22.5848 5.88928 21.8434C3.86572 19.8198 3.15024 18.2839 3.03177 17.5922L3.18062 11.6568C3.20268 11.6379 3.23113 11.6167 3.2663 11.5957C3.4116 11.5088 3.64577 11.4384 3.97167 11.542C4.36522 11.6672 4.71649 12.1083 4.94227 12.9645C5.15616 13.7756 5.17844 14.6881 5.14507 15.2272C5.12142 15.6092 5.33658 15.966 5.68547 16.1233C6.03436 16.2806 6.4442 16.2057 6.71482 15.9351L12.999 9.65086C13.3433 9.30657 13.711 9.0635 14.0135 8.97671ZM16.8906 12.5544C16.4836 12.9613 16.4836 13.6211 16.8906 14.028L19.3366 16.4741C19.7436 16.881 20.4033 16.881 20.8102 16.4741C21.2171 16.0672 21.2171 15.4074 20.8102 15.0005L18.3641 12.5544C17.9572 12.1475 17.2975 12.1475 16.8906 12.5544ZM7.44698 3.11087C7.04006 3.51779 7.04006 4.17753 7.44698 4.58445L9.89307 7.03054C10.3 7.43746 10.9597 7.43746 11.3667 7.03054C11.7736 6.62362 11.7736 5.96388 11.3667 5.55696L8.92057 3.11087C8.51365 2.70395 7.8539 2.70395 7.44698 3.11087ZM18.1392 9.99513C18.1392 10.5706 18.6057 11.0371 19.1811 11.0371L22.6404 11.0371C23.2159 11.0371 23.6824 10.5706 23.6824 9.99513C23.6824 9.41966 23.2159 8.95315 22.6404 8.95315L19.1811 8.95315C18.6057 8.95315 18.1392 9.41966 18.1392 9.99513ZM13.6867 5.56796C14.2622 5.56796 14.7287 5.10145 14.7287 4.52598L14.7287 1.06668C14.7287 0.491213 14.2622 0.024702 13.6867 0.0247015C13.1113 0.0247014 12.6448 0.491212 12.6448 1.06668L12.6448 4.52598C12.6448 5.10145 13.1113 5.56796 13.6867 5.56796Z"
                ></path>
              </mask>
              <path
                fill-rule="evenodd"
                clip-rule="evenodd"
                d="M17.1917 6.47316C17.5986 6.88008 18.2583 6.88008 18.6652 6.47316L21.1113 4.02707C21.5183 3.62015 21.5183 2.96041 21.1113 2.55349C20.7044 2.14657 20.0447 2.14657 19.6377 2.55349L17.1917 4.99958C16.7847 5.4065 16.7847 6.06624 17.1917 6.47316ZM15.8956 7.81151C15.1703 7.08625 14.2835 6.98384 13.5058 7.20696C12.7863 7.41338 12.1564 7.88977 11.6972 8.34898L6.8683 13.1778C6.83026 12.9511 6.78233 12.7218 6.72255 12.4951C6.45496 11.4803 5.86279 10.2114 4.52958 9.78745C3.65832 9.5104 2.87973 9.68169 2.32148 10.0155C2.04961 10.178 1.81911 10.3852 1.65077 10.6117C1.52434 10.7819 1.32868 11.1038 1.34283 11.5003L1.18922 17.6254C1.18804 17.6724 1.19046 17.7194 1.19646 17.766C1.35827 19.0234 2.39342 20.9513 4.5874 23.1453L4.63635 23.1942C5.31573 23.8737 5.92762 24.4856 6.5088 24.9016C7.13406 25.3491 7.83242 25.651 8.67001 25.5538C9.45263 25.4629 10.2029 25.0375 10.991 24.4287C11.7911 23.8107 12.7394 22.9151 13.921 21.7334C14.5192 21.1352 14.7747 20.4177 14.7593 19.6759C14.7447 18.9711 14.4884 18.2944 14.1658 17.7024C13.6886 16.8266 12.9804 15.9852 12.3318 15.2942L15.5055 12.1206C16.0178 11.6083 16.4565 10.9254 16.6059 10.1669C16.7631 9.36874 16.5886 8.50455 15.8956 7.81151ZM14.0135 8.97671C14.1419 8.93988 14.2418 8.9332 14.3283 8.9525C14.4135 8.97153 14.4991 9.01877 14.5937 9.1134C14.7016 9.22123 14.7641 9.32912 14.7948 9.43956C14.8257 9.55059 14.8268 9.67245 14.7995 9.81114C14.7384 10.121 14.5313 10.491 14.2036 10.8187L10.3883 14.634C10.2156 14.8066 10.1186 15.0408 10.1186 15.2849C10.1186 15.5291 10.2156 15.7632 10.3883 15.9359C11.1637 16.7114 12.048 17.6637 12.5491 18.5834C12.7979 19.0399 12.9124 19.4184 12.9186 19.7141C12.9239 19.9726 12.8501 20.2006 12.6192 20.4316C11.4399 21.6108 10.5639 22.4322 9.86548 22.9717C9.15495 23.5205 8.73254 23.693 8.45762 23.7249C8.23727 23.7505 7.99302 23.6998 7.5804 23.4044C7.13714 23.0872 6.63069 22.5848 5.88928 21.8434C3.86572 19.8198 3.15024 18.2839 3.03177 17.5922L3.18062 11.6568C3.20268 11.6379 3.23113 11.6167 3.2663 11.5957C3.4116 11.5088 3.64577 11.4384 3.97167 11.542C4.36522 11.6672 4.71649 12.1083 4.94227 12.9645C5.15616 13.7756 5.17844 14.6881 5.14507 15.2272C5.12142 15.6092 5.33658 15.966 5.68547 16.1233C6.03436 16.2806 6.4442 16.2057 6.71482 15.9351L12.999 9.65086C13.3433 9.30657 13.711 9.0635 14.0135 8.97671ZM16.8906 12.5544C16.4836 12.9613 16.4836 13.6211 16.8906 14.028L19.3366 16.4741C19.7436 16.881 20.4033 16.881 20.8102 16.4741C21.2171 16.0672 21.2171 15.4074 20.8102 15.0005L18.3641 12.5544C17.9572 12.1475 17.2975 12.1475 16.8906 12.5544ZM7.44698 3.11087C7.04006 3.51779 7.04006 4.17753 7.44698 4.58445L9.89307 7.03054C10.3 7.43746 10.9597 7.43746 11.3667 7.03054C11.7736 6.62362 11.7736 5.96388 11.3667 5.55696L8.92057 3.11087C8.51365 2.70395 7.8539 2.70395 7.44698 3.11087ZM18.1392 9.99513C18.1392 10.5706 18.6057 11.0371 19.1811 11.0371L22.6404 11.0371C23.2159 11.0371 23.6824 10.5706 23.6824 9.99513C23.6824 9.41966 23.2159 8.95315 22.6404 8.95315L19.1811 8.95315C18.6057 8.95315 18.1392 9.41966 18.1392 9.99513ZM13.6867 5.56796C14.2622 5.56796 14.7287 5.10145 14.7287 4.52598L14.7287 1.06668C14.7287 0.491213 14.2622 0.024702 13.6867 0.0247015C13.1113 0.0247014 12.6448 0.491212 12.6448 1.06668L12.6448 4.52598C12.6448 5.10145 13.1113 5.56796 13.6867 5.56796Z"
                fill="black"
              ></path>
              <path
                d="M18.6653 6.47316L18.5858 6.39368L18.5858 6.39368L18.6653 6.47316ZM17.1917 6.47316L17.2711 6.39368L17.2711 6.39368L17.1917 6.47316ZM21.1113 4.02707L21.0319 3.94759L21.0319 3.94759L21.1113 4.02707ZM21.1113 2.55348L21.1908 2.474L21.1908 2.474L21.1113 2.55348ZM19.6378 2.55348L19.5583 2.474L19.5583 2.474L19.6378 2.55348ZM17.1917 4.99957L17.1122 4.92009L17.1122 4.92009L17.1917 4.99957ZM13.5058 7.20695L13.4748 7.09891L13.4748 7.09891L13.5058 7.20695ZM11.6972 8.34898L11.7767 8.42846L11.7767 8.42846L11.6972 8.34898ZM6.86831 13.1778L6.75746 13.1964L6.79354 13.4116L6.94779 13.2573L6.86831 13.1778ZM6.72257 12.4951L6.83126 12.4664L6.83126 12.4664L6.72257 12.4951ZM4.52959 9.78744L4.49553 9.89456L4.49553 9.89456L4.52959 9.78744ZM2.32149 10.0155L2.26381 9.91899L2.26381 9.91899L2.32149 10.0155ZM1.65079 10.6117L1.74101 10.6788L1.74101 10.6788L1.65079 10.6117ZM1.34284 11.5003L1.45542 11.5031L1.45518 11.4963L1.34284 11.5003ZM1.18923 17.6254L1.3016 17.6282L1.3016 17.6282L1.18923 17.6254ZM1.19647 17.766L1.30796 17.7516L1.30796 17.7516L1.19647 17.766ZM4.58741 23.1453L4.6669 23.0658L4.6669 23.0658L4.58741 23.1453ZM4.63636 23.1942L4.71585 23.1147L4.71585 23.1147L4.63636 23.1942ZM6.50881 24.9016L6.44339 24.993L6.44339 24.993L6.50881 24.9016ZM8.67002 25.5538L8.65705 25.4421L8.65705 25.4421L8.67002 25.5538ZM10.991 24.4287L10.9223 24.3398L10.9223 24.3398L10.991 24.4287ZM14.7593 19.6759L14.6469 19.6782L14.6469 19.6782L14.7593 19.6759ZM14.1658 17.7024L14.2645 17.6486L14.2645 17.6486L14.1658 17.7024ZM12.3319 15.2942L12.2524 15.2147L12.1754 15.2917L12.2499 15.3711L12.3319 15.2942ZM15.5055 12.1206L15.585 12.2001L15.585 12.2001L15.5055 12.1206ZM16.6059 10.1669L16.7162 10.1886L16.7162 10.1886L16.6059 10.1669ZM14.3283 8.9525L14.3528 8.8428L14.3528 8.8428L14.3283 8.9525ZM14.0135 8.9767L13.9825 8.86866L13.9825 8.86866L14.0135 8.9767ZM14.7948 9.43956L14.9031 9.40942L14.9031 9.40942L14.7948 9.43956ZM14.7995 9.81114L14.9098 9.83286L14.9098 9.83286L14.7995 9.81114ZM14.2036 10.8187L14.2831 10.8982L14.2831 10.8982L14.2036 10.8187ZM10.3883 14.634L10.3088 14.5545L10.3088 14.5545L10.3883 14.634ZM10.1187 15.2849L10.0063 15.2849L10.0063 15.2849L10.1187 15.2849ZM12.5491 18.5834L12.4504 18.6372L12.4504 18.6372L12.5491 18.5834ZM12.9186 19.7141L12.8062 19.7164L12.8062 19.7164L12.9186 19.7141ZM9.8655 22.9717L9.93421 23.0606L9.93421 23.0606L9.8655 22.9717ZM8.45764 23.7249L8.4706 23.8366L8.4706 23.8366L8.45764 23.7249ZM7.58041 23.4044L7.64584 23.313L7.64584 23.313L7.58041 23.4044ZM3.03178 17.5922L2.91941 17.5894L2.91914 17.6004L2.92099 17.6112L3.03178 17.5922ZM3.18064 11.6568L3.10758 11.5714L3.06952 11.6039L3.06827 11.654L3.18064 11.6568ZM3.26631 11.5957L3.20863 11.4992L3.20863 11.4992L3.26631 11.5957ZM3.97168 11.542L3.93762 11.6491L3.93762 11.6491L3.97168 11.542ZM4.94228 12.9645L4.8336 12.9932L4.8336 12.9932L4.94228 12.9645ZM5.14508 15.2272L5.25727 15.2342L5.25727 15.2342L5.14508 15.2272ZM5.68549 16.1233L5.63928 16.2258L5.63928 16.2258L5.68549 16.1233ZM6.71484 15.9351L6.79432 16.0145L6.79432 16.0145L6.71484 15.9351ZM12.9991 9.65086L13.0785 9.73034L13.0785 9.73034L12.9991 9.65086ZM16.8906 14.028L16.97 13.9485L16.97 13.9485L16.8906 14.028ZM19.3367 16.4741L19.2572 16.5536L19.2572 16.5536L19.3367 16.4741ZM20.8102 16.4741L20.8897 16.5536L20.8897 16.5536L20.8102 16.4741ZM20.8102 15.0005L20.7308 15.08L20.7308 15.08L20.8102 15.0005ZM18.3641 12.5544L18.4436 12.4749L18.4436 12.4749L18.3641 12.5544ZM7.447 4.58445L7.52648 4.50497L7.52648 4.50497L7.447 4.58445ZM7.447 3.11086L7.36752 3.03138L7.36752 3.03138L7.447 3.11086ZM9.89309 7.03054L9.81361 7.11002L9.81361 7.11002L9.89309 7.03054ZM11.3667 7.03054L11.4462 7.11002L11.4462 7.11002L11.3667 7.03054ZM11.3667 5.55696L11.2872 5.63644L11.2872 5.63644L11.3667 5.55696ZM8.92058 3.11086L9.00006 3.03138L9.00006 3.03138L8.92058 3.11086ZM19.1812 11.0371L19.1812 11.1495L19.1812 11.1495L19.1812 11.0371ZM18.1392 9.99513L18.0268 9.99513L18.0268 9.99513L18.1392 9.99513ZM22.6405 11.0371L22.6405 11.1495L22.6405 11.1495L22.6405 11.0371ZM23.6824 9.99513L23.7948 9.99513L23.7948 9.99513L23.6824 9.99513ZM22.6405 8.95315L22.6405 8.84074L22.6405 8.84074L22.6405 8.95315ZM19.1812 8.95315L19.1812 9.06555L19.1812 9.06555L19.1812 8.95315ZM14.7287 4.52598L14.8411 4.52598L14.8411 4.52598L14.7287 4.52598ZM13.6868 5.56796L13.6868 5.68036L13.6868 5.56796ZM14.7287 1.06668L14.6163 1.06668L14.6163 1.06668L14.7287 1.06668ZM13.6868 0.0246987L13.6868 -0.0877056L13.6868 -0.0877056L13.6868 0.0246987ZM12.6448 1.06668L12.5324 1.06668L12.5324 1.06668L12.6448 1.06668ZM12.6448 4.52598L12.5324 4.52598V4.52598H12.6448ZM18.5858 6.39368C18.2227 6.7567 17.6342 6.7567 17.2711 6.39368L17.1122 6.55264C17.563 7.00346 18.2939 7.00346 18.7447 6.55264L18.5858 6.39368ZM21.0319 3.94759L18.5858 6.39368L18.7447 6.55264L21.1908 4.10655L21.0319 3.94759ZM21.0319 2.63297C21.3949 2.99599 21.3949 3.58456 21.0319 3.94759L21.1908 4.10655C21.6416 3.65574 21.6416 2.92482 21.1908 2.474L21.0319 2.63297ZM19.7172 2.63297C20.0803 2.26994 20.6688 2.26994 21.0319 2.63297L21.1908 2.474C20.74 2.02319 20.0091 2.02319 19.5583 2.474L19.7172 2.63297ZM17.2712 5.07906L19.7172 2.63297L19.5583 2.474L17.1122 4.92009L17.2712 5.07906ZM17.2711 6.39368C16.9081 6.03065 16.9081 5.44208 17.2712 5.07906L17.1122 4.92009C16.6614 5.37091 16.6614 6.10182 17.1122 6.55264L17.2711 6.39368ZM13.5368 7.315C14.2822 7.10114 15.1246 7.19944 15.8161 7.89099L15.9751 7.73203C15.2161 6.97306 14.2848 6.86653 13.4748 7.09891L13.5368 7.315ZM11.7767 8.42846C12.2288 7.97626 12.8427 7.51412 13.5368 7.315L13.4748 7.09891C12.7298 7.31264 12.0839 7.80327 11.6177 8.26949L11.7767 8.42846ZM6.94779 13.2573L11.7767 8.42846L11.6177 8.26949L6.78883 13.0983L6.94779 13.2573ZM6.61388 12.5237C6.67268 12.7467 6.71992 12.9726 6.75746 13.1964L6.97917 13.1592C6.94063 12.9295 6.89201 12.6968 6.83126 12.4664L6.61388 12.5237ZM4.49553 9.89456C5.77113 10.3002 6.34872 11.5182 6.61388 12.5237L6.83126 12.4664C6.56123 11.4424 5.95448 10.1226 4.56366 9.68032L4.49553 9.89456ZM2.37918 10.1119C2.91229 9.79319 3.65764 9.62813 4.49553 9.89456L4.56366 9.68032C3.65902 9.39267 2.8472 9.57018 2.26381 9.91899L2.37918 10.1119ZM1.74101 10.6788C1.89989 10.4649 2.11901 10.2675 2.37918 10.1119L2.26381 9.91899C1.98023 10.0885 1.73835 10.3054 1.56056 10.5447L1.74101 10.6788ZM1.45518 11.4963C1.44239 11.138 1.61988 10.8418 1.74101 10.6788L1.56056 10.5447C1.42882 10.722 1.215 11.0696 1.23051 11.5043L1.45518 11.4963ZM1.3016 17.6282L1.45521 11.5031L1.23047 11.4974L1.07686 17.6226L1.3016 17.6282ZM1.30796 17.7516C1.30269 17.7107 1.30057 17.6694 1.3016 17.6282L1.07686 17.6226C1.07554 17.6753 1.07826 17.728 1.08499 17.7803L1.30796 17.7516ZM4.6669 23.0658C2.47939 20.8783 1.46505 18.9724 1.30796 17.7516L1.08499 17.7803C1.25151 19.0744 2.30748 21.0243 4.50793 23.2247L4.6669 23.0658ZM4.71585 23.1147L4.6669 23.0658L4.50793 23.2247L4.55688 23.2737L4.71585 23.1147ZM6.57424 24.8102C6.0022 24.4008 5.39743 23.7964 4.71585 23.1147L4.55688 23.2737C5.23407 23.951 5.85306 24.5705 6.44339 24.993L6.57424 24.8102ZM8.65705 25.4421C7.85726 25.535 7.18663 25.2485 6.57424 24.8102L6.44339 24.993C7.08151 25.4497 7.80762 25.7671 8.68299 25.6654L8.65705 25.4421ZM10.9223 24.3398C10.139 24.9448 9.40871 25.3548 8.65705 25.4421L8.68299 25.6654C9.49657 25.5709 10.2668 25.1301 11.0597 24.5177L10.9223 24.3398ZM13.8416 21.654C12.6601 22.8354 11.7162 23.7265 10.9223 24.3398L11.0597 24.5177C11.866 23.8949 12.8187 22.9947 14.0005 21.8129L13.8416 21.654ZM14.6469 19.6782C14.6617 20.3906 14.4173 21.0782 13.8416 21.654L14.0005 21.8129C14.6212 21.1923 14.8877 20.4449 14.8717 19.6735L14.6469 19.6782ZM14.0671 17.7562C14.3852 18.3399 14.6328 18.9984 14.6469 19.6782L14.8717 19.6735C14.8566 18.9438 14.5916 18.2488 14.2645 17.6486L14.0671 17.7562ZM12.2499 15.3711C12.8964 16.0599 13.5968 16.8931 14.0671 17.7562L14.2645 17.6486C13.7804 16.7602 13.0645 15.9105 12.4138 15.2173L12.2499 15.3711ZM15.426 12.0411L12.2524 15.2147L12.4113 15.3737L15.585 12.2001L15.426 12.0411ZM16.4956 10.1452C16.3517 10.8762 15.9271 11.54 15.426 12.0411L15.585 12.2001C16.1085 11.6765 16.5614 10.9745 16.7162 10.1886L16.4956 10.1452ZM15.8161 7.89099C16.4795 8.55435 16.6465 9.37911 16.4956 10.1452L16.7162 10.1886C16.8797 9.35836 16.6978 8.45475 15.9751 7.73203L15.8161 7.89099ZM14.3528 8.8428C14.2418 8.81803 14.1218 8.82871 13.9825 8.86866L14.0445 9.08475C14.162 9.05105 14.2418 9.04836 14.3038 9.06221L14.3528 8.8428ZM14.6732 9.03391C14.5673 8.92802 14.4636 8.86752 14.3528 8.8428L14.3038 9.06221C14.3635 9.07553 14.4309 9.10952 14.5142 9.19287L14.6732 9.03391ZM14.9031 9.40942C14.8665 9.27782 14.7928 9.15348 14.6732 9.03391L14.5142 9.19287C14.6103 9.28897 14.6617 9.38041 14.6865 9.4697L14.9031 9.40942ZM14.9098 9.83286C14.9396 9.68125 14.9398 9.5411 14.9031 9.40942L14.6865 9.4697C14.7117 9.56008 14.714 9.66365 14.6892 9.78942L14.9098 9.83286ZM14.2831 10.8982C14.6221 10.5591 14.8434 10.17 14.9098 9.83286L14.6892 9.78942C14.6336 10.0719 14.4405 10.4228 14.1241 10.7392L14.2831 10.8982ZM10.4678 14.7135L14.2831 10.8982L14.1241 10.7392L10.3088 14.5545L10.4678 14.7135ZM10.2311 15.2849C10.2311 15.0706 10.3162 14.865 10.4678 14.7135L10.3088 14.5545C10.1151 14.7482 10.0063 15.011 10.0063 15.2849L10.2311 15.2849ZM10.4678 15.8564C10.3162 15.7048 10.2311 15.4993 10.2311 15.2849L10.0063 15.2849C10.0063 15.5589 10.1151 15.8216 10.3088 16.0154L10.4678 15.8564ZM12.6478 18.5296C12.1381 17.5942 11.2431 16.6317 10.4678 15.8564L10.3088 16.0154C11.0844 16.791 11.9579 17.7333 12.4504 18.6372L12.6478 18.5296ZM13.031 19.7117C13.0243 19.3911 12.9011 18.9944 12.6478 18.5296L12.4504 18.6372C12.6947 19.0854 12.8006 19.4457 12.8062 19.7164L13.031 19.7117ZM12.6986 20.511C12.952 20.2577 13.0369 19.9998 13.031 19.7117L12.8062 19.7164C12.8109 19.9453 12.7482 20.1435 12.5397 20.3521L12.6986 20.511ZM9.93421 23.0606C10.6388 22.5164 11.5192 21.6904 12.6986 20.511L12.5397 20.3521C11.3606 21.5312 10.489 22.348 9.79678 22.8827L9.93421 23.0606ZM8.4706 23.8366C8.77657 23.801 9.21902 23.6131 9.93421 23.0606L9.79678 22.8827C9.09091 23.4279 8.68854 23.5849 8.44467 23.6133L8.4706 23.8366ZM7.51499 23.4958C7.94084 23.8007 8.21277 23.8665 8.4706 23.8366L8.44467 23.6133C8.26179 23.6345 8.04523 23.5989 7.64584 23.313L7.51499 23.4958ZM5.80981 21.9229C6.54854 22.6616 7.06244 23.1719 7.51499 23.4958L7.64584 23.313C7.21187 23.0024 6.71287 22.508 5.96878 21.7639L5.80981 21.9229ZM2.92099 17.6112C3.04515 18.3361 3.77921 19.8923 5.80981 21.9229L5.96878 21.7639C3.95226 19.7474 3.25535 18.2317 3.14257 17.5732L2.92099 17.6112ZM3.06827 11.654L2.91941 17.5894L3.14415 17.595L3.29301 11.6596L3.06827 11.654ZM3.20863 11.4992C3.16783 11.5236 3.13426 11.5485 3.10758 11.5714L3.25369 11.7422C3.27113 11.7273 3.29446 11.7098 3.324 11.6922L3.20863 11.4992ZM4.00574 11.4349C3.64672 11.3207 3.37931 11.3972 3.20863 11.4992L3.324 11.6922C3.44393 11.6205 3.64485 11.556 3.93762 11.6491L4.00574 11.4349ZM5.05097 12.9359C4.82243 12.0692 4.45621 11.5781 4.00574 11.4349L3.93762 11.6491C4.27426 11.7562 4.61057 12.1475 4.8336 12.9932L5.05097 12.9359ZM5.25727 15.2342C5.29111 14.6876 5.26889 13.7622 5.05097 12.9359L4.8336 12.9932C5.04346 13.789 5.0658 14.6887 5.03289 15.2203L5.25727 15.2342ZM5.73169 16.0208C5.4254 15.8827 5.23651 15.5695 5.25727 15.2342L5.03289 15.2203C5.00636 15.6489 5.24779 16.0493 5.63928 16.2258L5.73169 16.0208ZM6.63535 15.8556C6.39777 16.0932 6.03798 16.159 5.73169 16.0208L5.63928 16.2258C6.03077 16.4023 6.49065 16.3182 6.79432 16.0145L6.63535 15.8556ZM12.9196 9.57138L6.63535 15.8556L6.79432 16.0145L13.0785 9.73034L12.9196 9.57138ZM13.9825 8.86866C13.6546 8.96275 13.2709 9.22006 12.9196 9.57138L13.0785 9.73034C13.4158 9.39306 13.7675 9.16424 14.0445 9.08475L13.9825 8.86866ZM16.97 13.9485C16.607 13.5855 16.607 12.9969 16.97 12.6339L16.8111 12.4749C16.3603 12.9258 16.3603 13.6567 16.8111 14.1075L16.97 13.9485ZM19.4161 16.3946L16.97 13.9485L16.8111 14.1075L19.2572 16.5536L19.4161 16.3946ZM20.7308 16.3946C20.3677 16.7576 19.7792 16.7576 19.4161 16.3946L19.2572 16.5536C19.708 17.0044 20.4389 17.0044 20.8897 16.5536L20.7308 16.3946ZM20.7308 15.08C21.0938 15.443 21.0938 16.0316 20.7308 16.3946L20.8897 16.5536C21.3405 16.1028 21.3405 15.3719 20.8897 14.921L20.7308 15.08ZM18.2847 12.6339L20.7308 15.08L20.8897 14.921L18.4436 12.4749L18.2847 12.6339ZM16.97 12.6339C17.3331 12.2709 17.9216 12.2709 18.2847 12.6339L18.4436 12.4749C17.9928 12.0241 17.2619 12.0241 16.8111 12.4749L16.97 12.6339ZM7.52648 4.50497C7.16346 4.14194 7.16346 3.55337 7.52648 3.19035L7.36752 3.03138C6.9167 3.4822 6.9167 4.21311 7.36752 4.66393L7.52648 4.50497ZM9.97257 6.95106L7.52648 4.50497L7.36752 4.66393L9.81361 7.11002L9.97257 6.95106ZM11.2872 6.95106C10.9242 7.31408 10.3356 7.31408 9.97257 6.95106L9.81361 7.11002C10.2644 7.56084 10.9953 7.56084 11.4462 7.11002L11.2872 6.95106ZM11.2872 5.63644C11.6502 5.99946 11.6502 6.58804 11.2872 6.95106L11.4462 7.11002C11.897 6.65921 11.897 5.92829 11.4462 5.47748L11.2872 5.63644ZM8.8411 3.19035L11.2872 5.63644L11.4462 5.47748L9.00006 3.03138L8.8411 3.19035ZM7.52648 3.19035C7.8895 2.82732 8.47808 2.82732 8.8411 3.19035L9.00006 3.03138C8.54925 2.58057 7.81833 2.58057 7.36752 3.03138L7.52648 3.19035ZM19.1812 10.9247C18.6678 10.9247 18.2516 10.5085 18.2516 9.99513L18.0268 9.99513C18.0268 10.6327 18.5436 11.1495 19.1812 11.1495L19.1812 10.9247ZM22.6405 10.9247L19.1812 10.9247L19.1812 11.1495L22.6405 11.1495L22.6405 10.9247ZM23.57 9.99513C23.57 10.5085 23.1538 10.9247 22.6405 10.9247L22.6405 11.1495C23.278 11.1495 23.7948 10.6327 23.7948 9.99513L23.57 9.99513ZM22.6405 9.06555C23.1538 9.06555 23.57 9.48174 23.57 9.99513L23.7948 9.99513C23.7948 9.35758 23.278 8.84074 22.6405 8.84074L22.6405 9.06555ZM19.1812 9.06555L22.6405 9.06555L22.6405 8.84074L19.1812 8.84074L19.1812 9.06555ZM18.2516 9.99513C18.2516 9.48174 18.6678 9.06555 19.1812 9.06555L19.1812 8.84074C18.5436 8.84074 18.0268 9.35758 18.0268 9.99513L18.2516 9.99513ZM14.6163 4.52598C14.6163 5.03937 14.2001 5.45555 13.6868 5.45555L13.6868 5.68036C14.3243 5.68036 14.8411 5.16353 14.8411 4.52598L14.6163 4.52598ZM14.6163 1.06668L14.6163 4.52598L14.8411 4.52598L14.8411 1.06668L14.6163 1.06668ZM13.6868 0.137103C14.2001 0.137103 14.6163 0.55329 14.6163 1.06668L14.8411 1.06668C14.8411 0.429131 14.3243 -0.0877051 13.6868 -0.0877056L13.6868 0.137103ZM12.7572 1.06668C12.7572 0.553288 13.1734 0.137103 13.6868 0.137103L13.6868 -0.0877056C13.0492 -0.0877057 12.5324 0.42913 12.5324 1.06668L12.7572 1.06668ZM12.7572 4.52598L12.7572 1.06668L12.5324 1.06668L12.5324 4.52598L12.7572 4.52598ZM13.6868 5.45555C13.1734 5.45555 12.7572 5.03937 12.7572 4.52598H12.5324C12.5324 5.16353 13.0492 5.68036 13.6868 5.68036L13.6868 5.45555Z"
                fill="black"
                mask="url(#path-1-inside-1_1029_2554)"
              ></path>
            </g>
            <defs>
              <clipPath id="clip0_1029_2554">
                <rect width="24" height="26" fill="white"></rect>
              </clipPath>
            </defs>
          </svg>