<svg width="39" height="32" viewBox="0 0 39 32" fill="none" xmlns="http://www.w3.org/2000/svg">
<g style="mix-blend-mode:multiply">
<path fill-rule="evenodd" clip-rule="evenodd" d="M34.4286 24.0408H12.6939C10.4848 24.0408 8.69391 22.25 8.69391 20.0408V4.42857C8.69391 3.38036 9.54365 2.53061 10.5919 2.53061V2C10.5919 0.89543 11.4873 0 12.5919 0H36.4286C37.5332 0 38.4286 0.895431 38.4286 2V2.53061V20.0408C38.4286 22.25 36.6377 24.0408 34.4286 24.0408ZM24.5102 10.4898C24.5102 9.93751 24.9579 9.4898 25.5102 9.4898H34.898C35.4503 9.4898 35.898 9.93751 35.898 10.4898V17.9796C35.898 18.5319 35.4503 18.9796 34.898 18.9796H25.5102C24.9579 18.9796 24.5102 18.5319 24.5102 17.9796V10.4898ZM14.0001 11C13.4478 11 13.0001 11.4477 13.0001 12C13.0001 12.5523 13.4478 13 14.0001 13H21.0001C21.5523 13 22.0001 12.5523 22.0001 12C22.0001 11.4477 21.5523 11 21.0001 11H14.0001ZM13.1225 3.53061C13.1225 2.97833 13.5702 2.53061 14.1225 2.53061H34.898C35.4503 2.53061 35.898 2.97833 35.898 3.53061V4.06122C35.898 4.61351 35.4503 5.06122 34.898 5.06122H14.1225C13.5702 5.06122 13.1225 4.61351 13.1225 4.06122V3.53061ZM14.0001 15C13.4478 15 13.0001 15.4477 13.0001 16C13.0001 16.5523 13.4478 17 14.0001 17H21.0001C21.5523 17 22.0001 16.5523 22.0001 16C22.0001 15.4477 21.5523 15 21.0001 15H14.0001Z" fill="#A0E7E7"/>
</g>
<g style="mix-blend-mode:multiply">
<path d="M25.7347 32H4C1.79086 32 0 30.2091 0 28V14.2137C0 13.1655 0.849745 12.3158 1.89796 12.3158V12C1.89796 10.8954 2.79339 10 3.89796 10H27.7347C28.8393 10 29.7347 10.8954 29.7347 12V12.3158V28C29.7347 30.2091 27.9438 32 25.7347 32Z" fill="#F9D963"/>
</g>
</svg>
