<svg
                      version="1.1"
                      id="Layer_1"
                      xmlns="http://www.w3.org/2000/svg"
                      xmlns:xlink="http://www.w3.org/1999/xlink"
                      x="0px"
                      y="0px"
                      viewBox="0 0 22 19"
                      xml:space="preserve"
                      height="22"
                      width="20"
                    >
                      <style type="text/css"></style>
                      <path
                        d="M21.2,6.9c0,0.9-0.3,1.8-0.7,2.5c-0.1,0.2-0.2,0.5-0.1,0.7c0.1,0.6,0.1,1.2,0,1.8c-0.1,0.6-0.4,1.1-0.8,1.6
	c-0.3,0.4-0.6,0.7-1,1c-0.1,0.1-0.2,0.2-0.1,0.3c0.2,0.4,0.4,0.8,0.6,1.2c0.1,0.2,0.2,0.5,0.2,0.7c0,0.3,0,0.5-0.1,0.8
	c-0.1,0.2-0.3,0.5-0.5,0.6c-0.2,0.2-0.4,0.3-0.7,0.4c-0.5,0.2-0.9,0.3-1.4,0.3c-0.4,0-0.8-0.2-1.1-0.5c-0.7-0.8-1.4-1.5-2.1-2.3
	c-0.1-0.2-0.3-0.3-0.6-0.3c-0.7-0.2-1.5-0.5-2.1-0.9c0,0-0.1-0.1-0.1-0.1c-0.1,0-0.1,0-0.2,0c-0.6,0.2-1.3,0.2-2,0.1
	c-0.7-0.1-1.3-0.3-1.9-0.7c-0.1,0-0.2,0-0.3,0c-1.3,0.3-2.7,0.2-3.9-0.3c-0.7-0.3-1.3-0.7-1.7-1.3c-0.4-0.6-0.7-1.3-0.7-2
	c-0.1-0.7,0-1.4,0.3-2c0-0.1,0-0.2,0-0.2C0.1,7.5,0,6.8,0.3,6.1S1,4.8,1.6,4.3C2,4,2.4,3.6,2.7,3.1C3,2.6,3.4,2.1,4,1.8
	c0.5-0.3,1.1-0.5,1.8-0.6c0.1,0,0.1,0,0.2,0C6.4,1.3,6.7,1,7,0.8C7.8,0.3,8.7,0,9.6,0c0.9,0,1.9,0.2,2.6,0.7
	c0.1,0.1,0.3,0.1,0.5,0.1c0.7-0.2,1.4-0.2,2.1,0c0.7,0.1,1.3,0.4,1.9,0.9c0.1,0.1,0.2,0.2,0.4,0.3c0.2,0.2,0.5,0.4,0.9,0.5
	c0.8,0.3,1.5,0.8,2.1,1.4s0.9,1.4,1,2.2C21.2,6.4,21.2,6.6,21.2,6.9L21.2,6.9z M19.1,7.6c0.1-0.4,0.1-0.8,0.1-1.3
	c0-0.3-0.1-0.6-0.3-0.9c-0.2-0.3-0.4-0.5-0.7-0.7c-0.5-0.3-1.1-0.5-1.7-0.6c-0.1,0-0.2,0-0.2-0.1c-0.1,0-0.1-0.1-0.2-0.2
	c-0.1-0.3-0.3-0.5-0.6-0.8c-0.5-0.4-1.1-0.7-1.8-0.7c-0.7,0-1.3,0.2-1.8,0.6c-0.1,0.1-0.2,0.1-0.3,0.2c-0.1,0.1-0.1,0.2-0.2,0.3
	c0,0.1,0,0.2,0,0.4c0,0.1,0.1,0.2,0.1,0.3c0,0.1,0.1,0.1,0.1,0.1c0,0,0.1,0.1,0.2,0.1c0.2,0,0.5,0.1,0.6,0.3
	c0.2,0.2,0.2,0.4,0.2,0.7c0,0.3-0.1,0.5-0.3,0.7c-0.2,0.2-0.5,0.3-0.7,0.2c-0.5,0-0.9-0.2-1.3-0.5c0,0-0.1,0-0.1,0c0,0-0.1,0-0.1,0
	c-0.5,0.2-1,0.4-1.5,0.5c-0.1,0-0.3,0-0.4,0c-0.1,0-0.3-0.1-0.4-0.2C8,6.3,7.9,6.2,7.8,6.1C7.8,5.9,7.7,5.8,7.7,5.7
	c0-0.1,0-0.3,0-0.4c0-0.1,0.1-0.2,0.2-0.3s0.2-0.2,0.3-0.2c0.1-0.1,0.2-0.1,0.4-0.1c0.2,0,0.3-0.1,0.5-0.1c0.2,0,0.3-0.2,0.4-0.3
	c0.1-0.1,0.2-0.3,0.1-0.5c0-0.5,0.2-1.1,0.5-1.5L10.3,2C9.9,1.9,9.4,1.9,9,2c-0.6,0.2-1.1,0.6-1.6,1C7.4,3.1,7.3,3.2,7.2,3.2
	c-0.1,0-0.2,0-0.3,0c-0.4,0-0.7-0.1-1.1-0.1C5.6,3.2,5.3,3.2,5,3.4C4.8,3.5,4.6,3.8,4.4,4C4.3,4.3,4.2,4.6,4,4.9
	C4,5.1,3.9,5.1,3.8,5.2C3.5,5.4,3.1,5.6,2.8,5.8C2.5,6.1,2.3,6.5,2.2,6.9h0.2c1-0.2,2.1-0.1,3,0.2c0.1,0,0.3,0.1,0.4,0.2
	C6,7.4,6,7.5,6.1,7.6C6.2,7.7,6.2,7.9,6.2,8c0,0.1,0,0.3,0,0.4c0,0.1-0.1,0.2-0.2,0.3C5.9,8.8,5.8,8.9,5.6,9C5.5,9,5.4,9,5.2,9
	C5.1,9,5,9,4.8,9C4.3,8.8,3.8,8.7,3.2,8.8c-0.7,0.1-1,0.1-1.1,1c0,0,0,0.1,0,0.1c-0.1,0.6,0.1,1.2,0.5,1.7c0.2,0.3,0.5,0.5,0.9,0.6
	c0.3,0.1,0.7,0.2,1.1,0.2c0.1,0,0.3,0,0.4,0c-0.1-0.2-0.2-0.5-0.3-0.7c-0.1-0.1-0.1-0.3-0.1-0.5c0-0.2,0-0.3,0.1-0.5
	c0.1-0.2,0.2-0.3,0.4-0.4c0.2-0.1,0.4-0.1,0.6-0.1c0.2,0,0.4,0.1,0.5,0.2c0.2,0.1,0.3,0.3,0.3,0.4c0.2,0.5,0.6,1,1,1.3
	c0.5,0.5,1.3,0.7,2,0.7c0.8-0.1,1.6-0.4,2.3-1c0.5-0.4,0.8-0.9,1-1.4c0.1-0.2,0.2-0.4,0.3-0.6c0.2-0.2,0.3-0.3,0.6-0.4
	c0.6-0.2,1.2-0.3,1.8-0.2c0.2,0,0.5,0.2,0.6,0.3c0.2,0.2,0.2,0.4,0.2,0.6c0,0.2-0.1,0.4-0.2,0.6c-0.1,0.2-0.4,0.3-0.6,0.3
	c-0.2,0-0.4,0-0.6,0c-0.1,0-0.1,0-0.2,0c-0.1,0-0.1,0.1-0.1,0.2c-0.2,0.5-0.5,1-0.9,1.4c-0.2,0.2-0.5,0.5-0.7,0.7l0.2,0.1
	c0.4,0.1,0.9,0.2,1.3,0.1c0.9,0,1.8-0.3,2.6-0.6c0.4-0.2,0.7-0.4,0.9-0.7c0.2-0.3,0.4-0.6,0.5-1c0.1-0.4,0.1-0.7,0.1-1.1
	c-0.1-0.4-0.2-0.7-0.4-1c-0.2-0.4-0.6-0.7-1-0.9c-0.4-0.2-0.9-0.3-1.4-0.3c-0.2,0-0.3,0-0.4-0.1C15.2,8,15.1,7.9,15,7.8
	c-0.1-0.1-0.2-0.3-0.2-0.5c0-0.2,0-0.4,0.1-0.5c0.1-0.2,0.2-0.3,0.4-0.4c0.2-0.1,0.4-0.1,0.6-0.1c1,0,1.9,0.3,2.8,0.9
	C18.7,7.3,18.9,7.5,19.1,7.6z M15.9,15.6c0.3,0.4,0.6,0.8,0.9,1.1c0.2,0.2,0.3,0.2,0.5,0c-0.2-0.4-0.4-0.8-0.6-1.2
	c0,0-0.1-0.1-0.1-0.1c0,0-0.1,0-0.1,0C16.4,15.5,16.2,15.5,15.9,15.6L15.9,15.6z"
                      ></path>
                      <path
                        d="M8.7,9.9c0-0.6,0.2-1.2,0.7-1.7c0.4-0.5,1-0.8,1.7-0.8c0.2,0,0.4,0,0.6,0c0.2,0,0.4,0.1,0.5,0.3
	c0.1,0.1,0.3,0.3,0.3,0.5c0,0.2,0,0.4,0,0.5c-0.1,0.2-0.2,0.3-0.3,0.4c-0.2,0.1-0.3,0.2-0.5,0.1c-0.5,0-0.8,0.3-0.8,0.8
	c0,0.2,0,0.4-0.1,0.5c-0.1,0.2-0.2,0.3-0.4,0.4C10.1,11,9.9,11,9.7,11c-0.2,0-0.3,0-0.5-0.1c-0.2-0.1-0.3-0.2-0.4-0.4
	c-0.1-0.1-0.1-0.3-0.1-0.5C8.7,10,8.7,10,8.7,9.9L8.7,9.9z"
                      ></path>
                    </svg>