<svg width="40" height="41" viewBox="0 0 40 41" fill="none" xmlns="http://www.w3.org/2000/svg">
<path fill-rule="evenodd" clip-rule="evenodd" d="M11.7627 32.6719C12.3236 33.1613 13.0149 33.6438 13.7844 34.0976C13.7729 34.1226 13.7578 34.1466 13.739 34.1689C12.5653 35.5619 10.3861 37.7195 9.50769 36.9824C8.61561 36.2338 10.5012 33.9334 11.709 32.7154C11.7256 32.6987 11.7436 32.6842 11.7627 32.6719Z" fill="#A0E7E7"/>
<path fill-rule="evenodd" clip-rule="evenodd" d="M14.6239 34.5408C15.3561 34.9211 16.133 35.2688 16.9183 35.5684C16.0664 37.3209 14.5215 39.8894 13.5362 39.3809C12.5263 38.8598 13.7303 36.1421 14.6239 34.5408Z" fill="#A0E7E7"/>
<g style="mix-blend-mode:multiply">
<path d="M9.03827 13.4073C10.9041 12.2881 17.3859 18.034 19.5926 20.5778C19.9048 20.9377 19.8769 21.4766 19.5608 21.8987L15.3266 27.5532C15.2756 27.6213 15.2339 27.6928 15.1901 27.765C13.9044 29.8828 5.49083 31.4782 3.10775 27.8929C-0.124176 23.0306 9.51868 21.8262 10.2204 20.7577C10.9222 19.6892 6.9999 14.6299 9.03827 13.4073Z" fill="#F9D963"/>
</g>
<g style="mix-blend-mode:multiply">
<path fill-rule="evenodd" clip-rule="evenodd" d="M25.0034 20.5409C27.7771 20.6569 30.4555 19.0608 31.5873 16.3492C33.039 12.871 31.3962 8.87452 27.918 7.4228C24.4398 5.97108 20.4433 7.61386 18.9916 11.0921C17.8544 13.8167 18.6161 16.8595 20.6715 18.7478C20.4428 18.9723 20.2123 19.1988 19.9807 19.4268C18.5944 16.8561 15.0416 12.2713 12.946 12.7888C11.5502 13.1336 12.2106 15.2622 12.785 17.1135C13.1862 18.4068 13.5454 19.5647 13.1322 19.8843C12.8562 20.0977 11.8236 20.1339 10.5075 20.1801C7.03053 20.3021 1.57475 20.4935 2.86491 24.2039C3.78485 26.8496 8.38068 27.959 11.6941 27.845C10.833 28.7838 10.2695 29.4584 10.1591 29.7229C8.71963 33.1717 23.1147 39.1799 24.5542 35.7311C24.8058 35.1282 24.9348 32.5731 24.99 29.323C27.5446 30.6038 31.539 30.516 33.9178 26.5488C34.1017 26.2421 33.682 25.9345 33.3907 26.1418C30.0092 28.5482 26.3056 27.1313 25.0242 24.9878C25.0251 23.5053 25.0171 21.994 25.0034 20.5409ZM29.7795 13.8849C30.2101 14.0647 30.7049 13.8613 30.8847 13.4306C31.0644 13 30.861 12.5052 30.4304 12.3255C29.9997 12.1457 29.5049 12.3491 29.3252 12.7797C29.1455 13.2104 29.3489 13.7052 29.7795 13.8849ZM22.8847 13.4306C22.7049 13.8613 22.2101 14.0647 21.7795 13.8849C21.3489 13.7052 21.1455 13.2104 21.3252 12.7797C21.5049 12.3491 21.9997 12.1457 22.4304 12.3255C22.861 12.5052 23.0644 13 22.8847 13.4306Z" fill="#77DEDE"/>
</g>
<g style="mix-blend-mode:multiply">
<rect x="36.3725" y="18.9481" width="2.38836" height="11.7055" rx="1" transform="rotate(21.696 36.3725 18.9481)" fill="#F9D963"/>
</g>
<path d="M24 15C24 15.5 24.4 17 26 17C27.6 17 28 15.5 28 15" stroke="white" stroke-linecap="round"/>
</svg>
