<svg width="40" height="32" viewBox="0 0 40 32" fill="none" xmlns="http://www.w3.org/2000/svg">
<g style="mix-blend-mode:multiply">
<path d="M4 4C4 1.79086 5.79086 0 8 0H31C33.2091 0 35 1.79086 35 4V24C35 26.2091 33.2091 28 31 28H8C5.79086 28 4 26.2091 4 24V4Z" fill="#A0E7E7"/>
</g>
<path d="M13.5973 14.9998H6.20749C3.54715 14.9998 -1.68707e-06 15.0728 0 12.0079C2.01294e-06 8.35102 3.84268 7.87603 5.3207 10.0132C3.25154 7.02125 6.79862 5.0266 7.6854 5.0266C8.57218 5.0266 13.3017 4.36171 12.4149 9.68079C17.7356 9.34834 16.2576 14.9998 13.5973 14.9998Z" fill="white"/>
<path d="M37.1468 24.9998H28.3714C25.2122 24.9998 21 25.0874 21 21.4094C21 17.0212 25.5632 16.4512 27.3183 19.0159C24.8612 15.4255 29.0734 13.0319 30.1264 13.0319C31.1795 13.0319 36.7958 12.2341 35.7427 18.6169C42.061 18.218 40.3059 24.9998 37.1468 24.9998Z" fill="white"/>
<g style="mix-blend-mode:multiply">
<path fill-rule="evenodd" clip-rule="evenodd" d="M23 18.5H11V27C11 28.6569 12.3431 30 14 30H23V18.5ZM23 16.5H11V8C11 6.34315 12.3431 5 14 5H23V16.5ZM25 18.5V30H34C35.6569 30 37 28.6569 37 27V18.5H25ZM37 16.5H25V5H34C35.6569 5 37 6.34315 37 8V16.5ZM39 27C39 29.7614 36.7614 32 34 32H14C11.2386 32 9 29.7614 9 27V8C9 5.23858 11.2386 3 14 3H34C36.7614 3 39 5.23858 39 8V27Z" fill="#F9D963"/>
</g>
</svg>
