<svg width="39" height="30" viewBox="0 0 39 30" fill="none" xmlns="http://www.w3.org/2000/svg">
<g style="mix-blend-mode:multiply">
<path d="M35.559 28.2007C33.9572 29.5926 28.9386 29.6118 28.2359 25.2088C15.88 25.6952 14.5071 21.3658 14.5071 16.1373C14.5071 10.9088 18.7237 8.15699 25.7514 8.15699C32.779 8.15699 38.7625 11.829 38.7625 16.7869C38.7625 20.9627 37.6184 23.4681 31.8978 24.8601C31.195 27.5018 33.4996 28.2007 35.559 28.2007Z" fill="#F9D963"/>
</g>
<g style="mix-blend-mode:multiply">
<path fill-rule="evenodd" clip-rule="evenodd" d="M14.7321 17.2045C13.0398 20.5889 10.5015 21.153 7.11699 20.5889C8.80924 20.7721 11.3476 19.63 10.2194 16.9224C5.14271 16.6404 0.912109 14.1098 0.912109 9.02529C0.912109 2.53836 7.12636 0 18.408 0C29.6896 0 34.4749 2.25632 34.4749 8.17917C34.4749 13.5379 34.4749 18.6147 14.7321 17.2045ZM11.4047 14.1021C12.6477 14.1021 13.7215 13.8321 14.1848 13.5171L13.7141 12.1674C13.236 12.3773 12.3976 12.5423 11.5224 12.5423C9.20563 12.5423 7.9259 11.3425 7.91855 9.09282C7.9259 7.18811 9.01441 5.49337 11.5518 5.49337C12.9419 5.49337 14.9423 5.80832 14.935 8.6129C14.9423 9.9177 14.6187 10.5176 14.2731 10.5176C14.148 10.5176 14.0451 10.4426 14.0377 10.1427V6.30325H12.6403V6.72318H12.5815C12.4417 6.39323 11.5297 6.06328 10.6398 6.22826C9.73518 6.39323 8.52899 7.14312 8.52164 9.13781C8.52899 11.1325 9.73518 11.9124 10.8163 11.9874C11.6474 12.0474 12.6035 11.7324 12.7727 11.2675H12.8168L12.8279 11.3237C12.9014 11.7399 12.9749 12.1336 14.0083 12.0324C15.619 11.8824 16.531 10.8476 16.5236 8.74787C16.531 5.67334 14.5893 3.94861 11.5518 3.94861C8.17597 3.94861 6.27844 6.10828 6.27108 9.18281C6.27844 12.2723 8.19067 14.1021 11.4047 14.1021ZM11.4047 10.4426C10.4412 10.4426 10.1323 9.78272 10.125 9.09282C10.1323 8.25295 10.5736 7.81802 11.3753 7.81802C12.3388 7.81802 12.4859 8.41792 12.4932 9.07782C12.5153 9.94769 12.2505 10.4426 11.4047 10.4426ZM21.1232 12.9172C21.7557 12.9172 22.4324 12.771 23.0355 12.3773C23.0355 12.3773 23.0392 12.3773 23.0392 12.3736L23.4326 12.7973H25.4625L24.2674 11.455C24.7896 10.7463 25.0065 9.79397 25.0065 8.79287H23.4032C23.4032 9.28404 23.2745 9.73022 23.0649 10.1052L22.1014 9.02533L22.4618 8.76287C23.1053 8.29794 23.462 7.66429 23.462 6.94815C23.462 5.88331 22.6824 4.99845 21.4174 4.99845C20.0936 4.99845 19.211 5.9583 19.211 7.12812C19.211 7.79552 19.4978 8.37293 19.8214 8.83411L19.8141 8.83786C19.0345 9.37778 18.5196 9.8952 18.5196 10.7576C18.5196 11.9461 19.5015 12.9172 21.1232 12.9172ZM21.9139 11.1625C21.7006 11.2487 21.4836 11.2975 21.2703 11.2975C20.7739 11.2975 20.4613 11.0425 20.4613 10.6076C20.4613 10.3076 20.6121 10.1202 20.8033 9.96269L21.9139 11.1625ZM21.2078 7.95675C20.9908 7.66429 20.8585 7.41308 20.8585 7.15812C20.8585 6.83567 21.0718 6.63695 21.4174 6.6332C21.7888 6.62945 21.9617 6.85441 21.9617 7.09813C21.9617 7.2856 21.8624 7.54056 21.5204 7.75803L21.2078 7.95675ZM27.3391 5.11843H29.3984L29.2072 10.3976H27.5303L27.3391 5.11843ZM29.3984 11.8674C29.391 12.4523 28.9093 12.9172 28.3687 12.9172C27.7987 12.9172 27.3317 12.4523 27.3391 11.8674C27.3317 11.2975 27.7987 10.8326 28.3687 10.8326C28.9093 10.8326 29.391 11.2975 29.3984 11.8674Z" fill="#77DEDE"/>
</g>
</svg>
