<svg width="77" height="72" viewBox="0 0 77 72" fill="none" xmlns="http://www.w3.org/2000/svg"><path fill-rule="evenodd" clip-rule="evenodd" d="M0.0222823 58.7997C0.0276728 51.9072 7.52941 39.9255 38.511 39.9255C70.014 39.9255 77.2401 52.314 76.9936 59.1433C76.9963 59.229 76.9977 59.315 76.9977 59.4013V63.2941C76.9977 67.7124 73.416 71.2941 68.9977 71.2941H8.00001C3.58174 71.2941 0 67.7124 0 63.2941V59.4013C0 59.1989 0.00751539 58.9983 0.0222823 58.7997Z" fill="#DDDDDD"></path><path d="M73.6243 28.9587C73.6243 38.1732 68.0996 46.3543 59.5583 51.4936C53.0053 53.7471 46.3706 54.8738 38.4508 54.8738C30.531 54.8738 24.5027 53.7471 17.3433 51.4936C8.80199 46.3543 3.27734 38.1732 3.27734 28.9587C3.27734 13.4016 19.025 0.79007 38.4508 0.79007C57.8766 0.79007 73.6243 13.4016 73.6243 28.9587Z" fill="#F5F5F5"></path><path d="M29.131 15.3043C32.2684 8.93762 40.4257 11.0586 41.6807 13.1809C39.1709 7.52163 51.0929 6.81536 51.0929 14.5967C56.1128 11.0598 62.3879 15.3043 58.623 20.2561C63.0154 20.9636 66.1528 29.4525 59.8777 31.5744C64.8975 37.2337 55.4853 42.1855 47.9555 37.9411C47.9555 45.0151 39.1708 44.3077 34.1509 39.3559C34.1509 45.0151 22.8562 45.0151 22.2288 37.2337C17.8365 39.3559 11.5615 30.8673 19.7188 24.5006C12.8165 16.7191 22.8562 8.93762 29.131 15.3043Z" fill="#FEC9FF"></path><path opacity="0.2" d="M24.8359 21.5029C25.4269 20.245 27.3889 18.1485 30.5091 19.8257" stroke="#D105D5" stroke-width="1.86043" stroke-linecap="round"></path><path opacity="0.2" d="M23.7002 33.3927C25.0189 33.0016 27.8677 33.0889 28.713 36.5662" stroke="#D105D5" stroke-width="1.86043" stroke-linecap="round"></path><path opacity="0.2" d="M41.136 36.3246C41.49 34.9783 43.0405 32.5529 46.4107 33.6227" stroke="#D105D5" stroke-width="1.86043" stroke-linecap="round"></path><path opacity="0.2" d="M53.6165 29.4203C53.9705 28.0739 55.5209 25.6486 58.8911 26.7183" stroke="#D105D5" stroke-width="1.86043" stroke-linecap="round"></path><path opacity="0.2" d="M52.6841 19.2913C50.9313 19.7794 47.3911 19.7261 47.2526 15.6081" stroke="#D105D5" stroke-width="1.86043" stroke-linecap="round"></path><g style="mix-blend-mode: multiply;"><path fill-rule="evenodd" clip-rule="evenodd" d="M29.4639 45.3578C47.2811 45.3578 61.7248 35.152 61.7248 22.5625C61.7248 21.1895 61.553 19.8449 61.2238 18.5387C60.7182 16.5328 63.0757 14.116 64.5366 15.5806C68.2369 19.2902 70.4101 23.8149 70.4101 28.6982C70.4101 41.2877 55.9664 51.4935 38.1492 51.4935C31.2649 51.4935 24.8843 49.9699 19.6459 47.3738C17.7923 46.4552 19.0492 44.1955 21.0817 44.5808C23.7547 45.0876 26.5646 45.3578 29.4639 45.3578Z" fill="#E6E6E6"></path></g><g filter="url(#filter0_i_1387_651)"><path d="M33.7374 24.3581C33.7122 25.249 32.9796 25.9506 32.1011 25.9251C31.2226 25.8996 30.5308 25.1566 30.556 24.2657C30.5812 23.3747 31.3137 22.6731 32.1923 22.6986C33.0708 22.7241 33.7625 23.4671 33.7374 24.3581Z" fill="#D105D5"></path><path d="M46.7178 24.3581C46.6927 25.249 45.9601 25.9506 45.0816 25.9251C44.2031 25.8996 43.5113 25.1566 43.5365 24.2657C43.5616 23.3747 44.2942 22.6731 45.1727 22.6986C46.0512 22.7241 46.743 23.4671 46.7178 24.3581Z" fill="#D105D5"></path><path fill-rule="evenodd" clip-rule="evenodd" d="M35.1622 28.8162C35.4407 28.397 36.3566 28.5963 36.5936 29.059C37.236 30.3134 37.7698 30.8485 38.8659 30.8804C39.9621 30.9122 40.4325 30.2734 41.1447 29.0583C41.4074 28.6101 42.4257 28.5999 42.6801 29.0346C42.9345 29.4693 42.9278 30.185 42.6651 30.6332C41.6388 32.3843 40.1859 32.9341 38.8021 32.8939C37.4183 32.8537 36.0127 32.2209 35.0869 30.413C34.85 29.9504 34.8338 29.2359 35.1622 28.8162Z" fill="#D105D5"></path></g><path d="M75.0009 28.7855C75.0009 38.2019 69.3552 46.5622 60.6269 51.814C53.9304 54.1168 47.1504 55.2683 39.0571 55.2683C30.9638 55.2683 24.8035 54.1168 17.4873 51.814C8.75892 46.5622 3.11328 38.2019 3.11328 28.7855C3.11328 12.8877 19.2059 0 39.0571 0C58.9083 0 75.0009 12.8877 75.0009 28.7855Z" fill="white"></path><path d="M29.5333 14.8322C32.7394 8.3261 41.0754 10.4936 42.3578 12.6623C39.793 6.8791 51.9762 6.15737 51.9762 14.1091C57.106 10.4948 63.5185 14.8322 59.6712 19.8925C64.1597 20.6154 67.3659 29.2902 60.9533 31.4586C66.0831 37.2419 56.4647 42.3022 48.7701 37.9648C48.7701 45.1938 39.7929 44.4709 34.6631 39.4106C34.6631 45.1938 23.1211 45.1938 22.4799 37.2419C17.9914 39.4106 11.579 30.736 19.9149 24.2299C12.8615 16.278 23.121 8.3261 29.5333 14.8322Z" fill="#E0E0E0"></path><path opacity="0.2" d="M21.1445 18.1667C21.7484 16.8812 23.7534 14.7387 26.9419 16.4527" stroke="#8E8E8E" stroke-width="2" stroke-linecap="round"></path><path opacity="0.2" d="M23.9835 33.3166C25.331 32.917 28.2422 33.0062 29.106 36.5597" stroke="#8E8E8E" stroke-width="2" stroke-linecap="round"></path><path opacity="0.2" d="M41.7994 36.3127C42.1611 34.9368 43.7456 32.4584 47.1896 33.5515" stroke="#8E8E8E" stroke-width="2" stroke-linecap="round"></path><path opacity="0.2" d="M54.5553 29.2572C54.917 27.8814 56.5014 25.4029 59.9454 26.4961" stroke="#8E8E8E" stroke-width="2" stroke-linecap="round"></path><path opacity="0.2" d="M52.6026 17.9063C50.8114 18.405 47.1937 18.3505 47.0522 14.1424" stroke="#8E8E8E" stroke-width="2" stroke-linecap="round"></path><g style="mix-blend-mode: multiply;"><path fill-rule="evenodd" clip-rule="evenodd" d="M29.8744 45.5448C48.0818 45.5448 62.8418 35.1154 62.8418 22.2502C62.8418 21.0307 62.7092 19.8332 62.4536 18.6643C61.9785 16.4917 64.5568 13.8939 66.0931 15.5018C69.6444 19.2185 71.7179 23.6983 71.7179 28.5203C71.7179 41.3855 56.9579 51.8149 38.7505 51.8149C31.9276 51.8149 25.5887 50.3503 20.3293 47.8418C18.322 46.8845 19.6524 44.4611 21.8423 44.8485C24.4132 45.3033 27.1039 45.5448 29.8744 45.5448Z" fill="#E6E6E6"></path></g><g filter="url(#filter1_i_1387_651)"><path d="M34.2377 24.086C34.212 24.9965 33.4634 25.7135 32.5656 25.6874C31.6679 25.6613 30.9609 24.9021 30.9866 23.9916C31.0124 23.0811 31.761 22.3642 32.6587 22.3902C33.5565 22.4163 34.2634 23.1755 34.2377 24.086Z" fill="#959595"></path><path d="M47.5053 24.086C47.4796 24.9965 46.7309 25.7135 45.8332 25.6874C44.9354 25.6613 44.2285 24.9021 44.2542 23.9916C44.2799 23.0811 45.0286 22.3642 45.9263 22.3902C46.8241 22.4163 47.531 23.1755 47.5053 24.086Z" fill="#959595"></path><path fill-rule="evenodd" clip-rule="evenodd" d="M35.6963 28.6418C35.9809 28.2134 36.9169 28.4171 37.159 28.8899C37.8155 30.1719 38.361 30.7187 39.4812 30.7512C40.6013 30.7838 41.0821 30.131 41.8098 28.8892C42.0782 28.4313 43.1189 28.4208 43.3788 28.865C43.6388 29.3092 43.632 30.0406 43.3635 30.4986C42.3148 32.2881 40.83 32.8499 39.4159 32.8088C38.0018 32.7677 36.5654 32.1211 35.6194 30.2737C35.3773 29.8008 35.3607 29.0708 35.6963 28.6418Z" fill="#959595"></path></g><path fill-rule="evenodd" clip-rule="evenodd" d="M31.1347 27.7953C33.6944 27.7953 35.7694 25.7202 35.7694 23.1606C35.7694 20.6009 33.6944 18.5259 31.1347 18.5259C28.575 18.5259 26.5 20.6009 26.5 23.1606C26.5 25.7202 28.575 27.7953 31.1347 27.7953ZM37.2596 23.5101C37.0784 26.7356 34.4055 29.2953 31.1347 29.2953C27.7466 29.2953 25 26.5487 25 23.1606C25 19.7725 27.7466 17.0259 31.1347 17.0259C34.163 17.0259 36.6789 19.2202 37.179 22.1055C37.7065 21.8476 38.3334 21.6289 39.0099 21.5356C39.9075 21.4117 40.8975 21.5103 41.835 22.0273C42.3667 19.1806 44.8644 17.0259 47.8653 17.0259C51.2534 17.0259 54 19.7725 54 23.1606C54 26.5487 51.2534 29.2953 47.8653 29.2953C44.5907 29.2953 41.9153 26.7296 41.7397 23.4988C40.921 22.8051 40.0243 22.6659 39.1922 22.7807C38.4379 22.8848 37.7445 23.1998 37.2596 23.5101ZM47.8653 27.7953C50.4249 27.7953 52.5 25.7202 52.5 23.1606C52.5 20.6009 50.4249 18.5259 47.8653 18.5259C45.3056 18.5259 43.2306 20.6009 43.2306 23.1606C43.2306 25.7202 45.3056 27.7953 47.8653 27.7953Z" fill="#959595"></path><defs><filter id="filter0_i_1387_651" x="30.5547" y="22.6979" width="16.2571" height="10.198" filterUnits="userSpaceOnUse" color-interpolation-filters="sRGB"><feFlood flood-opacity="0" result="BackgroundImageFix"></feFlood><feBlend mode="normal" in="SourceGraphic" in2="BackgroundImageFix" result="shape"></feBlend><feColorMatrix in="SourceAlpha" type="matrix" values="0 0 0 0 0 0 0 0 0 0 0 0 0 0 0 0 0 0 127 0" result="hardAlpha"></feColorMatrix><feOffset dx="0.930216"></feOffset><feGaussianBlur stdDeviation="0.0465108"></feGaussianBlur><feComposite in2="hardAlpha" operator="arithmetic" k2="-1" k3="1"></feComposite><feColorMatrix type="matrix" values="0 0 0 0 0 0 0 0 0 0 0 0 0 0 0 0 0 0 0.25 0"></feColorMatrix><feBlend mode="normal" in2="shape" result="effect1_innerShadow_1387_651"></feBlend></filter><filter id="filter1_i_1387_651" x="30.9863" y="22.3896" width="16.6195" height="10.4213" filterUnits="userSpaceOnUse" color-interpolation-filters="sRGB"><feFlood flood-opacity="0" result="BackgroundImageFix"></feFlood><feBlend mode="normal" in="SourceGraphic" in2="BackgroundImageFix" result="shape"></feBlend><feColorMatrix in="SourceAlpha" type="matrix" values="0 0 0 0 0 0 0 0 0 0 0 0 0 0 0 0 0 0 127 0" result="hardAlpha"></feColorMatrix><feOffset dx="1"></feOffset><feGaussianBlur stdDeviation="0.05"></feGaussianBlur><feComposite in2="hardAlpha" operator="arithmetic" k2="-1" k3="1"></feComposite><feColorMatrix type="matrix" values="0 0 0 0 0 0 0 0 0 0 0 0 0 0 0 0 0 0 0.25 0"></feColorMatrix><feBlend mode="normal" in2="shape" result="effect1_innerShadow_1387_651"></feBlend></filter></defs></svg>