<svg width="37" height="32" viewBox="0 0 37 32" fill="none" xmlns="http://www.w3.org/2000/svg">
<path fill-rule="evenodd" clip-rule="evenodd" d="M0.755102 4.53061H26.4286V12.8367C26.4286 14.5049 25.0763 15.8571 23.4082 15.8571H3.77551C2.10739 15.8571 0.755102 14.5049 0.755102 12.8367V4.53061ZM0 3.77551V4.53061V12.8367C0 14.9219 1.69036 16.6122 3.77551 16.6122H23.4082C25.4933 16.6122 27.1837 14.9219 27.1837 12.8367V4.53061V3.77551C27.1837 1.69035 25.4933 0 23.4082 0H3.77551C1.69035 0 0 1.69035 0 3.77551ZM14.4214 11.7814L14.6745 10.9405H16.1247L16.3778 11.7814H17.6649L16.2148 7.38805H14.5844L13.1343 11.7814H14.4214ZM14.8161 6.95901C14.8161 6.7445 14.9019 6.63295 15.0392 6.63295C15.1293 6.63295 15.2044 6.69301 15.2923 6.7638C15.4189 6.86463 15.5734 6.9869 15.8372 6.98476C16.2384 6.98047 16.558 6.66512 16.5666 6.05804H15.9917C15.9874 6.26612 15.9252 6.39054 15.76 6.39269C15.6785 6.39269 15.6034 6.33477 15.5154 6.26612L15.5144 6.26535C15.3859 6.16465 15.2252 6.03874 14.962 6.04088C14.5565 6.04302 14.2326 6.3412 14.2326 6.95901H14.8161ZM14.9448 10.0481L15.3824 8.59793H15.4168L15.8544 10.0481H14.9448ZM10.2649 7.32798C11.4576 7.32798 12.4015 8.11741 12.4015 9.58471C12.4015 11.052 11.4576 11.8414 10.2649 11.8414C9.0636 11.8414 8.12831 11.0434 8.12831 9.58471C8.12831 8.11741 9.0636 7.32798 10.2649 7.32798ZM10.2649 10.8032C10.857 10.8032 11.1745 10.3741 11.1745 9.58471C11.1745 8.79528 10.857 8.36625 10.2649 8.36625C9.67283 8.36625 9.35535 8.79528 9.35535 9.58471C9.35535 10.3741 9.67283 10.8032 10.2649 10.8032ZM5.80058 10.3999V7.38805H6.97613V10.3999C6.97184 11.2579 6.28539 11.8414 5.31148 11.8414C4.46628 11.8414 3.77124 11.421 3.77553 10.4085H4.96825C4.98112 10.741 5.12699 10.9147 5.3887 10.9147C5.6547 10.9147 5.79629 10.7388 5.80058 10.3999ZM20.6051 7.32798C21.7978 7.32798 22.7417 8.11741 22.7417 9.58471C22.7417 11.052 21.7978 11.8414 20.6051 11.8414C19.4038 11.8414 18.4685 11.0434 18.4685 9.58471C18.4685 8.11741 19.4038 7.32798 20.6051 7.32798ZM20.6051 10.8032C21.1972 10.8032 21.5146 10.3741 21.5146 9.58471C21.5146 8.79528 21.1972 8.36625 20.6051 8.36625C20.013 8.36625 19.6955 8.79528 19.6955 9.58471C19.6955 10.3741 20.013 10.8032 20.6051 10.8032Z" fill="#EB82ED"/>
<g style="mix-blend-mode:multiply">
<path fill-rule="evenodd" clip-rule="evenodd" d="M36.2449 18.5H10.5714V27.5613C10.5714 29.2294 11.9237 30.5817 13.5918 30.5817H33.2245C34.8926 30.5817 36.2449 29.2294 36.2449 27.5613V18.5ZM9.81633 18.5V17.7449C9.81633 15.6598 11.5067 13.9694 13.5918 13.9694H33.2245C35.3097 13.9694 37 15.6598 37 17.7449V18.5V27.5613C37 29.6464 35.3097 31.3368 33.2245 31.3368H13.5918C11.5067 31.3368 9.81633 29.6464 9.81633 27.5613V18.5Z" fill="#A0E7E7"/>
</g>
<path d="M13.5293 26.3674V21.9741H14.722V23.6902H16.3009V21.9741H17.4936V26.3674H16.3009V24.6512H14.722V26.3674H13.5293ZM19.8052 26.3674H18.5181L19.9683 21.9741H21.5986L23.0487 26.3674H21.7616L20.8006 23.1839H20.7663L19.8052 26.3674ZM19.565 24.6341H21.9847V25.5265H19.565V24.6341ZM27.8772 21.9741V26.3674H26.8818L25.2944 24.0592H25.2687V26.3674H24.0759V21.9741H25.0885L26.6502 24.2737H26.6845V21.9741H27.8772ZM30.1867 26.3674H28.8996L30.3497 21.9741H31.9801L33.4302 26.3674H32.1431L31.1821 23.1839H31.1477L30.1867 26.3674ZM29.9464 24.6341H32.3662V25.5265H29.9464V24.6341Z" fill="#A0E7E7"/>
</svg>
