<svg width="39" height="36" viewBox="0 0 39 36" fill="none" xmlns="http://www.w3.org/2000/svg">
<path d="M26.9018 24.0677C26.67 24.2395 26.4244 24.392 26.1676 24.5237C25.1997 25.0584 24.152 25.4349 23.0644 25.639C22.5388 25.7353 22.0068 25.7925 21.4728 25.8101C20.1904 25.8552 18.9107 25.6623 17.6992 25.2414C16.8527 24.9529 16.0483 24.5542 15.3068 24.0558C15.2139 23.9933 15.1614 23.9959 15.0778 24.0745C14.2885 24.8145 13.4963 25.5512 12.7011 26.2847C12.2649 26.6866 11.827 27.088 11.3873 27.4888C11.3198 27.5509 11.2975 27.5959 11.3665 27.6765C11.9725 28.3885 11.8427 29.498 11.0783 30.1122C10.7263 30.395 10.4136 30.7264 10.0818 31.034C9.29045 31.7668 8.49924 32.4979 7.7082 33.2272C7.24085 33.6605 6.78024 34.1031 6.30614 34.5306C5.87825 34.9179 5.48256 35.3424 5.0204 35.6903C4.4331 36.1329 3.52176 36.0951 2.96457 35.6164C2.64625 35.3434 2.38609 35.014 2.09426 34.7152C1.76348 34.376 1.44568 34.0245 1.12372 33.6765C0.869277 33.402 0.608598 33.1316 0.365055 32.8493C-0.145917 32.2527 -0.118914 31.2465 0.424773 30.6825C0.840197 30.2508 1.29509 29.8604 1.73388 29.453C2.01533 29.1921 2.29643 28.931 2.57719 28.6697C3.39835 27.9066 4.21898 27.1435 5.0391 26.3804C5.51943 25.9357 5.99717 25.4963 6.47283 25.0501C6.82802 24.7181 7.2424 24.5284 7.73312 24.5377C8.15728 24.543 8.56378 24.7076 8.87139 24.9984C8.93526 25.0573 8.96745 25.0775 9.04379 25.0056C9.67368 24.4141 10.3051 23.8294 10.9381 23.2441C11.4979 22.7271 12.0577 22.2075 12.6221 21.6931C12.713 21.6103 12.7073 21.5524 12.6408 21.4599C11.5627 19.9588 10.9064 18.1986 10.7395 16.3607C10.5726 14.5229 10.9013 12.6739 11.6916 11.0047C12.1207 10.0879 12.6854 9.24022 13.3668 8.48996C14.9675 6.72099 17.1272 5.54969 19.4881 5.17019C19.8744 5.10659 20.267 5.07712 20.6575 5.05127C21.0238 5.03221 21.391 5.03618 21.7568 5.06316C22.4366 5.09471 23.1104 5.20454 23.7649 5.39043C23.2046 5.73063 22.6635 6.0972 22.1743 6.53511C21.8861 6.79362 21.5927 7.04696 21.3476 7.3489C20.818 7.3489 20.2893 7.36648 19.7664 7.46109C19.2999 7.53804 18.8419 7.65923 18.3986 7.82301C17.9486 7.97357 17.5154 8.17023 17.1061 8.40982C16.1297 8.95898 15.2804 9.7068 14.6136 10.6046C13.3961 12.2408 12.8401 14.2725 13.0557 16.2975C13.1285 16.9807 13.291 17.6515 13.5392 18.2926C14.0234 19.5701 14.8257 20.704 15.8708 21.5881C16.7529 22.3395 17.7896 22.8894 18.908 23.1991C19.1308 23.2617 19.3525 23.3377 19.5878 23.346L19.6163 23.3677C19.928 23.4349 20.2446 23.4772 20.563 23.4944C21.3627 23.5373 22.1577 23.4944 22.9408 23.3087C23.298 23.225 23.6454 23.1102 23.9949 23.0027C24.4788 23.2745 24.9865 23.502 25.5117 23.6826C25.9645 23.8449 26.434 23.954 26.9018 24.0677Z" fill="#A0E7E7"/>
<path d="M23.7872 5.38836C24.9231 4.72718 26.1803 4.29895 27.485 4.12891C27.5764 4.11805 27.6091 4.08444 27.608 3.99086C27.6046 3.43938 27.6046 2.88789 27.608 2.33641C27.608 2.233 27.5691 2.21749 27.4787 2.21749C26.7822 2.22059 26.086 2.22059 25.3902 2.21749C24.9483 2.21749 24.6149 2.02206 24.4088 1.63636C24.1948 1.23619 24.2265 0.837569 24.4866 0.467901C24.5763 0.33796 24.6942 0.229749 24.8315 0.151265C24.9689 0.0727818 25.1222 0.0260338 25.2801 0.0144764C25.4748 -0.00517032 25.6685 -0.00155117 25.8627 -0.00206819H31.9196C32.0534 -0.00388612 32.1869 0.00999674 32.3174 0.0392932C32.5687 0.0946397 32.7926 0.235968 32.9501 0.438689C33.1076 0.64141 33.1888 0.892692 33.1794 1.14881C33.1722 1.40032 33.0792 1.64188 32.9157 1.83376C32.7522 2.02564 32.528 2.15641 32.28 2.20457C32.2033 2.21655 32.1255 2.22105 32.0479 2.21801C31.3604 2.21801 30.6728 2.22111 29.9853 2.21801C29.8648 2.21801 29.8295 2.25265 29.8321 2.37311C29.8384 2.89013 29.8415 3.40715 29.8321 3.92417C29.829 4.05963 29.884 4.09478 29.9962 4.10409C30.4468 4.1458 30.8932 4.22465 31.3308 4.33985C32.7973 4.70908 34.1629 5.39902 35.3281 6.35953C36.4933 7.32004 37.4289 8.52699 38.0669 9.89263C38.4733 10.7574 38.7506 11.6768 38.8899 12.6214C38.9533 13.055 38.9897 13.492 38.999 13.93C39.0559 16.4389 38.1687 18.8783 36.5116 20.7691C35.3088 22.1521 33.7499 23.1823 32.0027 23.7487C31.3515 23.9633 30.679 24.1072 29.9967 24.1778C29.5253 24.2349 29.0502 24.2572 28.5755 24.2445C28.0237 24.2278 27.4743 24.1666 26.9325 24.0615C27.1241 23.9224 27.3167 23.7849 27.5068 23.6438C28.1765 23.1411 28.7775 22.5536 29.2947 21.8962C30.1071 20.8772 30.7198 19.7151 31.1007 18.4705C31.3986 17.4969 31.5551 16.4859 31.5655 15.4682C31.5666 15.1163 31.5493 14.7646 31.5135 14.4145C31.499 14.2552 31.4995 14.0903 31.4372 13.9378C31.4409 13.9238 31.4445 13.9104 31.4476 13.8964C32.3733 12.9758 33.2987 12.0543 34.2237 11.1319C34.3675 10.9882 34.4314 10.7933 34.449 10.5937C34.4947 10.1217 34.2605 9.72873 33.8259 9.52244C33.4557 9.34769 32.953 9.44179 32.6487 9.75562C32.2437 10.1739 31.8262 10.5792 31.4133 10.9892C31.2176 11.1831 31.0192 11.3744 30.8224 11.5672C30.6931 11.286 30.5737 10.9985 30.4324 10.725C30.1805 10.2358 29.8914 9.76633 29.5678 9.32081C29.0498 8.60589 28.441 7.9608 27.7566 7.40163C27.083 6.84918 26.3403 6.38604 25.547 6.02378C24.9801 5.76147 24.3912 5.54886 23.7872 5.38836Z" fill="#EB82ED"/>
<path d="M31.4362 13.9383C31.4985 14.0934 31.4979 14.2563 31.5125 14.4155C31.5482 14.7656 31.5655 15.1173 31.5644 15.4692C31.554 16.4869 31.3975 17.4979 31.0997 18.4715C30.7189 19.7157 30.1066 20.8774 29.2946 21.8963C28.7772 22.5537 28.1758 23.1412 27.5057 23.6438C27.3157 23.7849 27.123 23.9224 26.9314 24.0615L26.9018 24.0667C26.4345 23.954 25.9671 23.8449 25.5107 23.6826C24.9844 23.5025 24.4757 23.2753 23.9907 23.0037C24.3366 22.8388 24.6938 22.7002 25.0293 22.5146C26.1223 21.9175 27.0626 21.0779 27.7773 20.0608C28.3213 19.2898 28.7239 18.4289 28.9665 17.5181C29.089 17.0765 29.1691 16.6244 29.2059 16.1677C29.2438 15.9609 29.2277 15.7541 29.2448 15.5473C29.3281 15.5675 29.4102 15.592 29.4909 15.6207C29.614 15.6724 29.6986 15.6481 29.7983 15.5488C30.2989 15.039 30.8083 14.5375 31.3152 14.034C31.3464 13.9921 31.3881 13.9591 31.4362 13.9383Z" fill="#9376D7"/>
<path d="M23.7872 5.38837C24.3912 5.54886 24.9801 5.76147 25.547 6.02378C26.3393 6.38692 27.0809 6.85075 27.7534 7.4037C28.4379 7.96287 29.0467 8.60796 29.5647 9.32287C29.8884 9.76889 30.1774 10.2388 30.4293 10.7286C30.5705 11.0037 30.6889 11.2896 30.8193 11.5709C30.8193 11.5791 30.8193 11.5869 30.8151 11.5952C30.7798 11.6267 30.744 11.6572 30.7113 11.6908C30.2065 12.1923 29.7007 12.6933 29.1996 13.199C29.1254 13.2734 29.0589 13.3189 28.9556 13.2719L28.8984 13.1214C28.7261 12.5133 28.4753 11.9301 28.1522 11.3863C27.088 9.55357 25.3435 8.21014 23.2944 7.64515C22.6595 7.4695 22.0057 7.3709 21.3471 7.35148C21.5922 7.04954 21.8856 6.79569 22.1738 6.5377C22.6629 6.09978 23.204 5.73322 23.7643 5.39302C23.772 5.39195 23.7797 5.39039 23.7872 5.38837Z" fill="#9376D7"/>
<path d="M21.346 7.3489C22.0046 7.36831 22.6585 7.46692 23.2933 7.64257C25.3425 8.20756 27.0869 9.55099 28.1512 11.3837C28.4742 11.9275 28.7251 12.5108 28.8974 13.1188C28.8771 13.1131 28.8559 13.1085 28.8356 13.1013L25.5512 11.9535C24.5702 11.6102 23.5883 11.2695 22.6089 10.9231C22.3706 10.8304 22.1134 10.7965 21.8591 10.8243C21.549 10.8654 21.2618 11.0091 21.0437 11.2322C20.8255 11.4554 20.689 11.7451 20.6561 12.0548C20.6232 12.3645 20.6958 12.6763 20.8623 12.9399C21.0288 13.2036 21.2794 13.4039 21.574 13.5087C22.9698 13.9967 24.3656 14.4855 25.7615 14.9749C26.547 15.2507 27.3325 15.5252 28.118 15.7985C28.4814 15.9247 28.8449 16.0446 29.2084 16.1677C29.1717 16.6244 29.0915 17.0765 28.9691 17.5181C28.7265 18.4289 28.3239 19.2898 27.7799 20.0608C27.0651 21.0788 26.1245 21.9191 25.0308 22.5167C24.6938 22.7023 24.3366 22.8409 23.9923 23.0058C23.6428 23.1133 23.2954 23.2281 22.9381 23.3119C22.1551 23.4969 21.3601 23.5404 20.5604 23.4975C20.2419 23.4803 19.9254 23.438 19.6137 23.3708L19.5852 23.3491C19.583 23.3231 19.5712 23.299 19.5519 23.2814C18.7372 22.2983 18.0686 21.2038 17.5667 20.0314C16.8585 18.3843 16.4877 16.613 16.4762 14.8214C16.4721 14.4781 16.4975 14.1348 16.5178 13.7915C16.552 13.2262 16.6261 12.664 16.7395 12.1091C16.9777 10.9107 17.3826 9.75119 17.9427 8.6642C18.0886 8.38139 18.2454 8.10427 18.3976 7.82508C18.8409 7.6613 19.2989 7.54011 19.7653 7.46316C20.2877 7.36803 20.8164 7.34735 21.346 7.3489Z" fill="#EB82ED"/>
<path d="M19.5836 23.347L19.6122 23.3687L19.5836 23.347Z" fill="#FEFEFE"/>
<path d="M30.8151 11.5926C31.0297 12.1056 31.1954 12.6375 31.31 13.1814C31.3619 13.4182 31.4014 13.6586 31.4465 13.8975C31.4434 13.9114 31.4398 13.9249 31.4362 13.9388C31.3886 13.9597 31.3474 13.9927 31.3167 14.0345C30.8099 14.538 30.3005 15.0396 29.7999 15.5493C29.7028 15.6486 29.6156 15.6708 29.4925 15.6212C29.4116 15.5925 29.3293 15.5679 29.2458 15.5478C29.252 14.7787 29.154 14.0123 28.9545 13.2693C29.0584 13.3163 29.1243 13.2693 29.1986 13.1964C29.6997 12.6907 30.2055 12.1897 30.7102 11.6882C30.744 11.6546 30.7798 11.6241 30.8151 11.5926Z" fill="#89E8E7"/>
</svg>
