<svg width="34" height="30" viewBox="0 0 34 30" fill="none" xmlns="http://www.w3.org/2000/svg">
<g style="mix-blend-mode:multiply">
<path fill-rule="evenodd" clip-rule="evenodd" d="M13.0822 18.8446L20.9233 0.866001C21.2241 0.176182 22.21 0.198091 22.4799 0.900595L30.4723 21.7024L33.2613 28.0972C33.5037 28.653 33.0964 29.2749 32.4901 29.2749H17.909C17.9081 29.2749 17.9072 29.2749 17.9064 29.2749H0.842621C0.172076 29.2749 -0.229056 28.5289 0.140734 27.9695L9.09916 14.4186C9.44322 13.8981 10.2142 13.92 10.5281 14.4591L13.0822 18.8446Z" fill="#A0E7E7"/>
</g>
<path fill-rule="evenodd" clip-rule="evenodd" d="M26.1182 10.2469C25.8543 10.4618 25.5504 10.6592 25.2207 10.7834C24.8402 10.9267 24.4047 10.9801 23.9578 10.8292C23.645 10.7235 23.3538 10.527 23.0869 10.2363C22.7705 10.5478 22.35 10.8638 21.8391 10.9872C21.1617 11.1508 20.4371 10.956 19.7101 10.2554C19.4834 10.5194 19.2228 10.7042 18.9342 10.8108C18.5018 10.9705 18.0606 10.9345 17.6681 10.8085C17.3845 10.7174 17.1127 10.5755 16.8651 10.4077L17.2073 9.61827C17.4292 9.78564 17.6765 9.92747 17.9253 10.0073C18.1913 10.0927 18.4323 10.0992 18.6427 10.0215C18.8494 9.94521 19.0809 9.76769 19.2944 9.38101C19.3617 9.2592 19.4848 9.17853 19.6234 9.16552C19.7619 9.15251 19.8979 9.20885 19.9867 9.31602C20.7045 10.1827 21.2584 10.2619 21.6416 10.1693C22.087 10.0618 22.4822 9.68568 22.7884 9.31602C22.8733 9.21346 23.0018 9.15718 23.1348 9.16427C23.2677 9.17136 23.3895 9.24099 23.4631 9.352C23.7406 9.77088 24.0057 9.95727 24.227 10.032C24.4465 10.1062 24.6775 10.0889 24.9241 9.99601C25.2373 9.87802 25.5402 9.6514 25.7983 9.40907L26.1182 10.2469Z" fill="white"/>
<g style="mix-blend-mode:multiply">
<circle cx="4.32612" cy="7.39854" r="4.20698" fill="#EB82ED"/>
</g>
</svg>
