<svg width="52" height="42" viewBox="0 0 52 42" fill="none" xmlns="http://www.w3.org/2000/svg">
<path d="M14.4063 35.8563C17.3811 31.6869 17.4651 27.7624 17.3989 25.085C17.3831 24.4446 17.9584 23.9593 18.586 24.0874C21.179 24.6165 27.1971 25.8325 29.6082 26.2199C30.1534 26.3075 30.6302 26.7881 30.6527 27.34C30.8949 33.2677 29.1317 37.0572 27.5042 39.5827C27.2839 39.9245 26.8727 40.0866 26.4752 40.001L15.0109 37.5334C14.2697 37.3738 13.966 36.4735 14.4063 35.8563Z" fill="#F9D963"/>
<path d="M19.1042 32.9368C19.7721 31.7017 19.9263 30.5462 19.9491 29.6101C19.9647 28.9698 20.5264 28.484 21.1542 28.611C22.2468 28.832 23.8283 29.1475 24.8486 29.3309C25.3922 29.4286 25.8743 29.926 25.871 30.4783C25.8583 32.5844 25.2639 34.0387 24.652 35.0715C24.4447 35.4213 24.0304 35.5819 23.6329 35.4964L19.7908 34.6694C19.0496 34.5099 18.7435 33.6037 19.1042 32.9368Z" fill="#60B61C"/>
<path d="M4.24251 14.5063C7.05478 10.8217 7.75509 6.1815 7.73409 3.35368C7.72933 2.71315 8.27122 2.17774 8.9075 2.25156C11.5744 2.56094 17.8141 3.2728 20.1754 3.43937C20.6837 3.47523 21.1729 3.83888 21.2749 4.33812C22.5356 10.5084 18.8044 15.8727 17.1455 17.5384C16.9478 17.7369 16.6661 17.8176 16.3882 17.7823L4.92683 16.3278C4.09386 16.2221 3.73308 15.1738 4.24251 14.5063Z" fill="#F9D963"/>
<path d="M48.9013 25.0025C45.8717 21.4944 44.8926 16.9049 44.7428 14.081C44.7089 13.4413 44.1357 12.9396 43.505 13.0517C40.8616 13.5215 34.6763 14.6087 32.3294 14.9175C31.8242 14.984 31.3578 15.3765 31.2862 15.881C30.4002 22.1162 34.4484 27.2454 36.2048 28.808C36.4142 28.9942 36.7002 29.0577 36.9755 29.0057L48.3282 26.862C49.1532 26.7062 49.4501 25.638 48.9013 25.0025Z" fill="#F9D963"/>
<g style="mix-blend-mode:multiply">
<circle cx="13.0682" cy="10.3451" r="3" transform="rotate(-9.27178 13.0682 10.3451)" fill="#62D649"/>
</g>
<g style="mix-blend-mode:multiply">
<path d="M36.8498 23.436L38.2445 18.7065C38.4484 18.0154 39.2941 17.7601 39.8462 18.2231L44.0541 21.7513C44.692 22.2862 44.4352 23.3208 43.6212 23.4954L38.0186 24.6966C37.277 24.8556 36.6353 24.1635 36.8498 23.436Z" fill="#62D649"/>
</g>
<g style="mix-blend-mode:multiply">
<path d="M24.5 27.0083L16.5 6.5083L38.5 16.0083L24.5 27.0083Z" stroke="#A0E7E7" stroke-linejoin="round"/>
</g>
</svg>
