<svg width="140" height="47" viewBox="0 0 140 47" fill="none" xmlns="http://www.w3.org/2000/svg">
<path d="M76.293 10.2438C77.5659 10.1348 80.1119 10.6359 80.1119 13.5117C80.1119 11.1592 82.4881 10.3529 83.6762 10.2438" stroke="#77DEDE" stroke-width="1.64072" stroke-linecap="round" stroke-linejoin="round"/>
<path d="M85.3174 40.5938C86.7318 40.5121 89.5606 40.8879 89.5606 43.0447C89.5606 41.2803 92.2009 40.6756 93.521 40.5938" stroke="#A0E7E7" stroke-width="1.64072" stroke-linecap="round" stroke-linejoin="round"/>
<path d="M86.1372 37.3258C87.2687 37.1352 89.5318 38.0121 89.5318 43.0447C89.5318 38.9278 91.644 37.5167 92.7001 37.3258" stroke="#A0E7E7" stroke-width="1.64072" stroke-linecap="round" stroke-linejoin="round"/>
<path d="M62.3472 6.14195C63.6201 6.03302 66.1661 6.5341 66.1661 9.40986C66.1661 7.05737 68.5423 6.25105 69.7304 6.14195" stroke="#77DEDE" stroke-width="1.64072" stroke-linecap="round" stroke-linejoin="round"/>
<g style="mix-blend-mode:multiply">
<path fill-rule="evenodd" clip-rule="evenodd" d="M15.4423 24.9388C19.7065 24.9388 23.1634 21.4819 23.1634 17.2177C23.1634 12.9534 19.7065 9.49658 15.4423 9.49658C11.178 9.49658 7.72119 12.9534 7.72119 17.2177C7.72119 21.4819 11.178 24.9388 15.4423 24.9388ZM12.3046 19.4349C12.7037 19.4349 13.0272 19.1115 13.0272 18.7124C13.0272 18.3133 12.7037 17.9899 12.3046 17.9899C11.9056 17.9899 11.5821 18.3133 11.5821 18.7124C11.5821 19.1115 11.9056 19.4349 12.3046 19.4349ZM20.2522 18.7124C20.2522 19.1115 19.9287 19.4349 19.5297 19.4349C19.1306 19.4349 18.8071 19.1115 18.8071 18.7124C18.8071 18.3133 19.1306 17.9899 19.5297 17.9899C19.9287 17.9899 20.2522 18.3133 20.2522 18.7124ZM14.5314 20.2185C14.4792 19.9576 14.2255 19.7885 13.9646 19.8406C13.7037 19.8928 13.5345 20.1466 13.5867 20.4074C13.8678 21.8128 14.8896 22.601 15.9858 22.601C17.0821 22.601 18.1039 21.8128 18.385 20.4074C18.4372 20.1466 18.268 19.8928 18.0071 19.8406C17.7462 19.7885 17.4925 19.9576 17.4403 20.2185C17.2397 21.2217 16.5755 21.6376 15.9858 21.6376C15.3962 21.6376 14.732 21.2217 14.5314 20.2185Z" fill="#A0E7E7"/>
</g>
<path fill-rule="evenodd" clip-rule="evenodd" d="M21.1628 9.12387L16.2981 1.82676C15.3481 0.401791 13.6128 -0.282984 11.9457 0.10927L8.64775 0.885264C7.81638 1.08088 7.80009 2.25832 8.62572 2.47687L10.7386 3.03615C11.2131 3.16175 11.4718 3.67312 11.292 4.12981L9.38081 8.98263C4.32853 9.50284 0.771973 10.7459 0.771973 12.1967C0.771973 14.1156 6.99431 15.6712 14.67 15.6712C22.3456 15.6712 28.5679 14.1156 28.5679 12.1967C28.5679 10.8641 25.5672 9.70673 21.1628 9.12387Z" fill="#F9D963"/>
<path d="M23.0641 26.8241C22.1982 25.7243 25.0336 23.1353 28.7439 24.1334C30.2116 24.7596 30.9043 25.6395 31.4694 26.9761C32.0345 28.3128 30.665 32.4312 28.9888 32.4917C28.0412 32.5259 28.594 30.5473 28.9345 29.3288L28.9346 29.3283C28.7641 29.9376 27.4987 31.5275 26.5278 31.2231C25.8806 31.0202 26.291 29.2717 27.1208 28.2622C26.5767 28.8093 25.5672 29.5226 24.796 29.0236C23.8024 28.3807 25.3066 27.1961 25.7352 26.5024C25.2489 27.1228 23.7569 27.7039 23.0641 26.8241Z" fill="#A0E7E7"/>
<path d="M10.0313 27.6463C10.7312 26.434 7.55497 24.2768 4.02544 25.7949C2.66225 26.6244 2.10232 27.5942 1.73407 28.9979C1.36581 30.4016 3.30971 34.282 4.97737 34.1024C5.92014 34.0008 5.09022 32.1215 4.57917 30.9642L4.57894 30.9637C4.83483 31.5424 6.31434 32.9352 7.23186 32.4951C7.84339 32.2018 7.18733 30.5299 6.22186 29.6493C6.83846 30.113 7.93962 30.6748 8.63157 30.0708C9.52312 29.2924 7.86505 28.3349 7.34176 27.7096C7.91171 28.2541 9.47143 28.6161 10.0313 27.6463Z" fill="#A0E7E7"/>
<g style="mix-blend-mode:multiply">
<path d="M14.9715 36.0847L14.286 34.9422C14.1346 34.69 13.769 34.69 13.6177 34.9422L12.9322 36.0847C12.8993 36.1396 12.8534 36.1855 12.7985 36.2184L11.656 36.9039C11.4038 37.0552 11.4038 37.4208 11.656 37.5722L12.7985 38.2577C12.8534 38.2906 12.8993 38.3365 12.9322 38.3913L13.6177 39.5338C13.769 39.7861 14.1346 39.7861 14.286 39.5338L14.9715 38.3913C15.0044 38.3365 15.0503 38.2906 15.1051 38.2577L16.2476 37.5722C16.4999 37.4208 16.4999 37.0552 16.2476 36.9039L15.1051 36.2184C15.0503 36.1855 15.0044 36.1396 14.9715 36.0847Z" fill="#A0E7E7"/>
</g>
<g style="mix-blend-mode:multiply">
<path d="M24.5026 35.7007L23.3367 33.7575C23.1853 33.5052 22.8198 33.5052 22.6684 33.7575L21.5025 35.7007C21.4696 35.7556 21.4237 35.8015 21.3688 35.8344L19.4256 37.0003C19.1733 37.1517 19.1733 37.5173 19.4256 37.6686L21.3688 38.8346C21.4237 38.8675 21.4696 38.9134 21.5025 38.9682L22.6684 40.9115C22.8198 41.1637 23.1853 41.1637 23.3367 40.9115L24.5026 38.9682C24.5356 38.9134 24.5815 38.8675 24.6363 38.8346L26.5795 37.6686C26.8318 37.5173 26.8318 37.1517 26.5795 37.0003L24.6363 35.8344C24.5815 35.8015 24.5356 35.7556 24.5026 35.7007Z" fill="#A0E7E7"/>
</g>
<g style="mix-blend-mode:multiply">
<path d="M16.8055 30.5834L16.12 29.4409C15.9686 29.1886 15.603 29.1886 15.4517 29.4409L14.7662 30.5834C14.7333 30.6382 14.6874 30.6841 14.6325 30.717L13.49 31.4025C13.2378 31.5539 13.2378 31.9195 13.49 32.0708L14.6325 32.7563C14.6874 32.7892 14.7333 32.8352 14.7662 32.89L15.4517 34.0325C15.603 34.2848 15.9686 34.2848 16.12 34.0325L16.8055 32.89C16.8384 32.8352 16.8843 32.7892 16.9391 32.7563L18.0816 32.0708C18.3339 31.9195 18.3339 31.5539 18.0816 31.4025L16.9391 30.717C16.8843 30.6841 16.8384 30.6382 16.8055 30.5834Z" fill="#A0E7E7"/>
</g>
<g style="mix-blend-mode:multiply">
<circle r="7.33505" transform="matrix(1 0 0 -1 16.6007 34.5899)" fill="#F9D963"/>
</g>
<g style="mix-blend-mode:multiply">
<path d="M30.1233 42.2831L29.4378 41.1406C29.2865 40.8883 28.9209 40.8883 28.7695 41.1406L28.084 42.2831C28.0511 42.3379 28.0052 42.3838 27.9504 42.4168L26.8079 43.1023C26.5556 43.2536 26.5556 43.6192 26.8079 43.7705L27.9504 44.456C28.0052 44.489 28.0511 44.5349 28.084 44.5897L28.7695 45.7322C28.9209 45.9845 29.2865 45.9845 29.4378 45.7322L30.1233 44.5897C30.1562 44.5349 30.2022 44.489 30.257 44.456L31.3995 43.7705C31.6518 43.6192 31.6518 43.2536 31.3995 43.1023L30.257 42.4168C30.2022 42.3838 30.1562 42.3379 30.1233 42.2831Z" fill="#A0E7E7"/>
</g>
<g style="mix-blend-mode:multiply">
<path d="M38.9288 35.1183L37.5878 32.8832C37.4364 32.631 37.0708 32.631 36.9195 32.8832L35.5785 35.1183C35.5455 35.1731 35.4996 35.219 35.4448 35.2519L33.2097 36.593C32.9575 36.7443 32.9575 37.1099 33.2097 37.2613L35.4448 38.6023C35.4996 38.6352 35.5455 38.6811 35.5785 38.736L36.9195 40.971C37.0708 41.2233 37.4364 41.2233 37.5878 40.971L38.9288 38.736C38.9617 38.6811 39.0076 38.6352 39.0625 38.6023L41.2975 37.2613C41.5498 37.1099 41.5498 36.7443 41.2975 36.593L39.0625 35.2519C39.0076 35.219 38.9617 35.1731 38.9288 35.1183Z" fill="#A0E7E7"/>
</g>
<g style="mix-blend-mode:multiply">
<ellipse cx="120.312" cy="19.8175" rx="19.493" ry="4.40163" transform="rotate(22.5824 120.312 19.8175)" fill="#77DEDE"/>
</g>
<g style="mix-blend-mode:multiply">
<path d="M128.75 17.5387C127.216 21.2262 124.191 20.0693 120.504 18.5357C116.816 17.002 113.863 15.6724 115.396 11.9849C116.93 8.29742 121.163 6.55136 124.85 8.085C128.538 9.61863 130.284 13.8512 128.75 17.5387Z" fill="#F9D963"/>
</g>
<path d="M126.651 32.9756L126.597 39.8927" stroke="#F9D963" stroke-width="2.0043" stroke-linecap="round"/>
<path d="M105.115 23.6911L100.622 28.9509" stroke="#F9D963" stroke-width="2.0043" stroke-linecap="round"/>
<path d="M116.543 36.1614C116.374 35.9214 116.209 35.6875 116.042 35.4553C116.022 35.4325 115.997 35.4151 115.969 35.4044L112.82 33.9268C112.799 33.917 112.777 33.9094 112.747 33.8973C112.658 34.1688 112.57 34.4341 112.483 34.6999C112.339 35.1439 112.194 35.5883 112.05 36.0329C111.958 36.317 111.867 36.602 111.771 36.8844C111.744 36.9727 111.689 37.0499 111.614 37.1037C111.54 37.1575 111.452 37.1846 111.363 37.1809C111.277 37.1785 111.195 37.147 111.13 37.0912C111.066 37.0354 111.022 36.9586 111.005 36.8726C110.993 36.7771 111.003 36.6791 111.034 36.5868C111.26 35.8804 111.492 35.1756 111.722 34.4705C111.783 34.2834 111.844 34.096 111.905 33.9087C111.916 33.8763 111.924 33.8431 111.936 33.7988C111.727 33.8216 111.531 33.8395 111.336 33.8678C111.307 33.8716 111.275 33.9192 111.259 33.953C110.903 34.7085 110.548 35.4646 110.195 36.2212C110.158 36.3041 110.096 36.3732 110.019 36.4175C109.941 36.4619 109.852 36.479 109.766 36.4663C109.475 36.4199 109.342 36.139 109.475 35.8455C109.608 35.5519 109.75 35.2584 109.889 34.9635C110.095 34.5233 110.303 34.0815 110.506 33.6418C110.528 33.5918 110.534 33.5367 110.525 33.4839C110.486 33.2934 110.441 33.1046 110.39 32.9174C110.374 32.8714 110.342 32.8336 110.3 32.811C109.991 32.6603 109.678 32.5139 109.364 32.3717C109.342 32.3626 109.319 32.3582 109.295 32.3587C109.271 32.3593 109.247 32.3648 109.225 32.3749C108.677 32.6948 108.083 32.8368 107.471 32.9088C107.388 32.9214 107.304 32.9151 107.225 32.8903C107.145 32.8655 107.073 32.8229 107.012 32.7655C106.876 32.6385 106.739 32.5127 106.603 32.3863C106.401 32.1935 106.368 31.968 106.497 31.7051C106.917 30.8477 107.337 29.9899 107.756 29.1319C107.766 29.1101 107.776 29.0882 107.793 29.0514C107.615 28.9679 107.439 28.8932 107.271 28.8025C107.198 28.7628 107.136 28.7047 107.091 28.6334C107.046 28.5593 107.028 28.4712 107.039 28.3832C107.049 28.2952 107.088 28.2125 107.149 28.1483C107.275 28.0094 107.465 27.9689 107.647 28.0546C107.9 28.169 108.152 28.2852 108.4 28.4079C108.539 28.4765 108.689 28.521 108.843 28.5398C109.199 28.5856 109.554 28.6392 109.909 28.6854C109.969 28.693 110.03 28.6884 110.089 28.672C111.007 28.4039 111.921 28.1343 112.836 27.8714C113.133 27.786 113.423 27.8193 113.706 27.9226C113.757 27.9411 113.805 27.9658 113.855 27.9889C116.168 29.0745 118.482 30.16 120.795 31.2456C121.276 31.4712 121.626 31.8228 121.821 32.3253C122.021 32.8475 122.018 33.3846 121.782 33.9061C121.399 34.7555 120.996 35.5921 120.6 36.4338C120.517 36.611 120.371 36.7008 120.198 36.6936C120.019 36.6844 119.891 36.5832 119.836 36.4019C119.798 36.2818 119.831 36.1688 119.883 36.0572C120.266 35.2408 120.649 34.424 121.033 33.6072C121.112 33.4474 121.156 33.2724 121.161 33.0953C121.166 32.9182 121.132 32.7435 121.061 32.5843C121.042 32.5376 121.014 32.4938 120.981 32.4281L120.925 32.5466C120.723 32.9772 120.512 33.4034 120.322 33.8395C120.165 34.2 119.911 34.4833 119.665 34.7746C119.508 34.9592 119.35 35.1418 119.197 35.3288C119.166 35.3694 119.145 35.4177 119.138 35.4685C119.066 35.9961 119 36.5237 118.927 37.0511C118.916 37.1484 118.891 37.2438 118.852 37.3341C118.481 38.1335 118.108 38.9313 117.731 39.7275C117.609 39.9879 117.339 40.0669 117.112 39.9157C116.95 39.8077 116.904 39.5893 117.004 39.375C117.23 38.8934 117.453 38.4103 117.684 37.9311C117.705 37.8978 117.714 37.8587 117.711 37.8201C117.708 37.7815 117.692 37.7455 117.666 37.7178C117.452 37.4279 117.245 37.1327 117.027 36.8284C116.873 36.9957 116.726 37.157 116.577 37.3189C116.15 37.7824 115.724 38.2466 115.299 38.7114C115.128 38.897 114.922 38.9306 114.749 38.8058C114.558 38.6696 114.515 38.4031 114.673 38.2196C114.956 37.8911 115.252 37.574 115.544 37.2535C115.874 36.8912 116.204 36.5316 116.543 36.1614Z" fill="#EB82ED" stroke="#EB82ED" stroke-width="0.33405"/>
<g style="mix-blend-mode:multiply">
<path d="M65.7003 43.0765L66.778 34.3556C66.7995 34.1823 66.6642 34.0293 66.4895 34.0293H64.3225C63.1603 34.0293 62.3665 35.2044 62.8004 36.2825L64.0984 39.5082C64.1328 39.5935 64.1247 39.6901 64.0766 39.7686L62.1648 42.889C62.0461 43.0827 62.1855 43.3315 62.4127 43.3315H65.4118C65.5586 43.3315 65.6823 43.2222 65.7003 43.0765Z" fill="#F9D963"/>
</g>
<g style="mix-blend-mode:multiply">
<path d="M54.4861 31.6672L56.9296 30.6214C57.1059 30.5459 57.1621 30.3234 57.0429 30.1733L56.4916 29.4794C56.4079 29.374 56.2628 29.3398 56.1408 29.3969L53.2892 30.7307C53.1584 30.7919 53.0924 30.9397 53.134 31.0779L53.5732 32.5357C53.6571 32.8142 54.0529 32.8104 54.1314 32.5303L54.3206 31.8559C54.3444 31.7712 54.4053 31.7018 54.4861 31.6672Z" fill="#F9D963"/>
</g>
<g style="mix-blend-mode:multiply">
<path d="M88.81 25.3926L80.3945 23.7579C77.0343 23.1051 73.5757 23.1523 70.2345 23.8964L64.4461 25.1854C64.4253 25.1901 64.4041 25.1924 64.3829 25.1924H63.4419C62.1069 25.1924 60.8835 24.4472 60.2711 23.261L59.1734 21.1349C58.9329 20.6692 58.5928 20.2621 58.1772 19.9427L56.3083 18.5063C55.564 17.9343 54.6244 17.6785 53.693 17.7944L49.3228 18.3382C48.0741 18.4935 46.9995 19.295 46.4947 20.4476L45.6239 22.4355C45.5492 22.6061 45.652 22.802 45.8348 22.8375L51.4686 23.9304C51.7474 23.9845 51.7912 24.3653 51.5319 24.4812L47.7035 26.1922C47.515 26.2764 47.472 26.5248 47.621 26.6675L48.0132 27.0431C48.8281 27.8237 49.9643 28.1728 51.077 27.9845L53.5747 27.5618C53.6797 27.544 53.786 27.585 53.8518 27.6688L56.4806 31.0154C56.5691 31.128 56.5624 31.2881 56.4649 31.3929L54.5845 33.4149C54.4944 33.5117 54.4811 33.6572 54.552 33.7688L55.383 35.0764C55.5391 35.3219 55.9191 35.2114 55.9191 34.9205V34.2219C55.9191 34.1328 55.9599 34.0487 56.0299 33.9935L57.6242 32.7374C57.7548 32.6346 57.9449 32.6619 58.0411 32.7975L58.1784 32.9908C59.3092 34.5835 61.1415 35.5297 63.0948 35.5297H66.6348C66.7466 35.5297 66.8485 35.5939 66.8968 35.6947L69.0022 40.0818C69.0486 40.1784 69.0381 40.2926 68.9749 40.3791L67.1554 42.8693C67.0151 43.0614 67.1522 43.3315 67.3901 43.3315H70.3518C70.4919 43.3315 70.6121 43.2315 70.6376 43.0938L71.9531 35.9927C71.962 35.9449 71.9827 35.9 72.0134 35.8623L75.9818 30.9826C77.127 29.5744 78.6933 28.5703 80.4509 28.1175L88.8271 25.9595C89.1272 25.8822 89.1142 25.4517 88.81 25.3926Z" fill="#EB82ED"/>
</g>
<path d="M55.3286 22.5396C54.9638 21.0805 53.5046 21.0801 53.1398 22.5396" stroke="white" stroke-width="0.581386" stroke-linecap="round"/>
</svg>
