<svg width="31" height="25" viewBox="0 0 31 25" fill="none" xmlns="http://www.w3.org/2000/svg">
<g clip-path="url(#clip0_1304_88)">
<path d="M1.21138 8.78696C2.08523 9.26357 3.05899 9.53207 4.05561 9.57122C2.44801 8.42673 1.51676 6.91574 1.29467 5.002C1.13865 3.66505 1.42707 2.31415 2.11614 1.1545C5.55343 5.18712 9.92786 7.38772 15.2394 7.75629C15.1177 7.21419 15.0651 6.65906 15.0829 6.10396C15.1195 4.7201 15.6239 3.3885 16.5152 2.32276C17.4919 1.0944 18.9097 0.287726 20.4723 0.0712945C22.5645 -0.228901 24.3967 0.352726 25.9273 1.81368C25.9769 1.87252 26.0427 1.91572 26.1167 1.93795C26.1907 1.96017 26.2696 1.96045 26.3438 1.93876C27.6374 1.65526 28.8793 1.17601 30.0258 0.517836C30.0561 0.501575 30.0877 0.489064 30.152 0.460295C29.9227 1.17727 29.5644 1.84722 29.0946 2.43783C28.6318 3.01817 28.0749 3.51823 27.4466 3.91754C28.6661 3.77748 29.8572 3.45573 30.9798 2.96317L31.0063 2.99319C30.7628 3.31215 30.5281 3.63736 30.2744 3.94881C29.5902 4.78334 28.802 5.52851 27.9286 6.1665C27.8804 6.2049 27.8496 6.26068 27.8428 6.3216C27.8252 6.98578 27.8327 7.64997 27.7974 8.31165C27.7327 9.36253 27.5615 10.4043 27.2864 11.4212C26.4762 14.5207 24.9974 17.26 22.779 19.5915C20.405 22.1148 17.3046 23.8521 13.8993 24.5672C12.7132 24.8229 11.5052 24.9657 10.2917 24.9937C7.31016 25.0882 4.35166 24.447 1.68205 23.1275C1.11043 22.8461 0.561523 22.5221 0.00756836 22.1932C3.46253 22.5159 6.56922 21.6553 9.33521 19.574C8.02085 19.5213 6.75321 19.0762 5.69853 18.2969C4.6317 17.5115 3.84074 16.4137 3.4373 15.1586C4.35808 15.336 5.30759 15.3027 6.21338 15.061C4.34583 14.5957 2.92498 13.5538 1.9849 11.8865C1.45436 10.9396 1.1874 9.86984 1.21138 8.78696Z" fill="#A0E7E7"/>
</g>
<defs>
<clipPath id="clip0_1304_88">
<rect width="31" height="25" fill="white"/>
</clipPath>
</defs>
</svg>
