<svg width="33" height="39" viewBox="0 0 33 39" fill="none" xmlns="http://www.w3.org/2000/svg">
<path d="M11.1144 5.06337C10.1826 5.06337 9.41716 4.16538 8.28564 3.31433V7.46464C8.90687 7.76109 10.1493 8.354 11.0812 8.354C12.246 8.354 12.7784 6.42704 13.9432 6.42704C14.8751 6.42704 16.2063 6.42704 18.2286 7.46464C16.772 5.74521 14.5755 4.16538 13.6437 4.16538C12.4789 4.16538 12.2792 5.06337 11.1144 5.06337Z" fill="#EB82ED"/>
<path d="M8.28564 12.4287V7.46464M8.28564 7.46464V3.31433C9.41716 4.16538 10.1826 5.06337 11.1144 5.06337C12.2792 5.06337 12.4789 4.16538 13.6437 4.16538C14.5755 4.16538 16.772 5.74521 18.2286 7.46464C16.2063 6.42704 14.8751 6.42704 13.9432 6.42704C12.7784 6.42704 12.246 8.354 11.0812 8.354C10.1493 8.354 8.90687 7.76109 8.28564 7.46464Z" stroke="#EB82ED" stroke-width="0.82858" stroke-linejoin="round"/>
<g style="mix-blend-mode:multiply">
<path fill-rule="evenodd" clip-rule="evenodd" d="M4.67333 0.0719793C4.56864 -0.0156944 4.43403 -0.0238681 4.32309 0.0507123C4.21215 0.125293 4.1429 0.27052 4.1429 0.428577V12.4287H4.82526V6.14516C5.10745 6.28867 5.4379 6.4477 5.78541 6.58973C6.34992 6.82046 6.98768 7.0185 7.55366 7.0185C7.96333 7.0185 8.30641 6.82763 8.59827 6.57451C8.87903 6.33101 9.13072 6.01281 9.356 5.728L9.367 5.7141C9.60484 5.41345 9.81544 5.14912 10.0394 4.95487C10.2569 4.76627 10.4665 4.66266 10.6963 4.66266H10.7017C11.7024 4.66266 13.1073 4.66265 15.2606 5.89276C15.4094 5.97778 15.5854 5.91821 15.68 5.75074C15.7747 5.58327 15.7615 5.35499 15.6485 5.20651C14.8282 4.12836 13.8037 3.09856 12.852 2.33619C12.3759 1.95479 11.9121 1.63554 11.4959 1.41013C11.0883 1.18939 10.694 1.04047 10.3674 1.04047C9.63566 1.04047 9.19477 1.36355 8.81318 1.64319L8.80691 1.64778C8.44083 1.91603 8.13341 2.13832 7.5902 2.13832C7.17915 2.13832 6.78195 1.91943 6.30586 1.52903C6.07029 1.33587 5.82652 1.11042 5.55707 0.861228L5.55705 0.861214L5.55196 0.856509C5.28303 0.607796 4.99149 0.338412 4.67333 0.0719793ZM24.0269 38.669H20.8657V34.2426C20.8657 31.6235 18.7425 29.5004 16.1235 29.5004C13.5044 29.5004 11.3813 31.6235 11.3813 34.2426V38.669H8.21946L2.72547 38.669C2.26786 38.669 1.89689 38.298 1.89689 37.8404V19.8964C1.89689 19.4388 1.52592 19.0678 1.06831 19.0678H0.82858C0.370968 19.0678 0 18.6969 0 18.2392V13.2573C0 12.7997 0.370968 12.4287 0.82858 12.4287H1.10652C1.54303 12.4287 1.89689 12.7826 1.89689 13.2191C1.89689 13.6556 2.25075 14.0095 2.68726 14.0095H3.00341C3.43992 14.0095 3.79378 13.6556 3.79378 13.2191C3.79378 12.7826 4.14764 12.4287 4.58415 12.4287H4.9003C5.33681 12.4287 5.69067 12.7826 5.69067 13.2191C5.69067 13.6556 6.04453 14.0095 6.48104 14.0095H6.79718C7.23369 14.0095 7.58755 13.6556 7.58755 13.2191C7.58755 12.7826 7.94142 12.4287 8.37793 12.4287H8.69407C9.13058 12.4287 9.48444 12.7826 9.48444 13.2191C9.48444 13.6556 9.83831 14.0095 10.2748 14.0095H10.591C11.0275 14.0095 11.3813 13.6556 11.3813 13.2191C11.3813 12.7826 11.7352 12.4287 12.1717 12.4287H12.4496C12.9073 12.4287 13.2782 12.7997 13.2782 13.2573V18.2392C13.2782 18.6969 12.9073 19.0678 12.4496 19.0678H12.2099C11.7523 19.0678 11.3813 19.4388 11.3813 19.8964V21.2045C11.3813 22.1197 12.1233 22.8616 13.0385 22.8616H19.2085C20.1237 22.8616 20.8656 22.1197 20.8656 21.2045V19.8964C20.8656 19.4388 20.4947 19.0678 20.0371 19.0678H19.7973C19.3397 19.0678 18.9687 18.6968 18.9687 18.2392V13.2573C18.9687 12.7997 19.3397 12.4287 19.7973 12.4287H20.0753C20.5118 12.4287 20.8656 12.7826 20.8656 13.2191C20.8656 13.6556 21.2195 14.0094 21.656 14.0094H21.9722C22.4087 14.0094 22.7625 13.6556 22.7625 13.2191C22.7625 12.7826 23.1164 12.4287 23.5529 12.4287H23.869C24.3056 12.4287 24.6594 12.7826 24.6594 13.2191C24.6594 13.6556 25.0133 14.0094 25.4498 14.0094H25.7659C26.2024 14.0094 26.5563 13.6556 26.5563 13.2191C26.5563 12.7826 26.9102 12.4287 27.3467 12.4287H27.6628C28.0993 12.4287 28.4532 12.7826 28.4532 13.2191C28.4532 13.6556 28.8071 14.0094 29.2436 14.0094H29.5597C29.9962 14.0094 30.3501 13.6556 30.3501 13.2191C30.3501 12.7826 30.7039 12.4287 31.1405 12.4287H31.4184C31.876 12.4287 32.247 12.7997 32.247 13.2573V18.2392C32.247 18.6968 31.876 19.0678 31.4184 19.0678H31.1787C30.7211 19.0678 30.3501 19.4388 30.3501 19.8964V37.8404C30.3501 38.298 29.9791 38.669 29.5215 38.669H24.0269L24.0269 38.669ZM6.48138 23.5202C6.93899 23.5202 7.30996 23.8911 7.30996 24.3487V25.9517H8.91251C9.37012 25.9517 9.74109 26.3227 9.74109 26.7803C9.74109 27.2379 9.37012 27.6088 8.91251 27.6088H7.30996V29.2114C7.30996 29.669 6.93899 30.04 6.48138 30.04C6.02377 30.04 5.6528 29.669 5.6528 29.2114V27.6088H4.04985C3.59224 27.6088 3.22127 27.2379 3.22127 26.7803C3.22127 26.3227 3.59224 25.9517 4.04985 25.9517H5.6528V24.3487C5.6528 23.8911 6.02377 23.5202 6.48138 23.5202ZM26.3388 24.3488C26.3388 23.8912 25.9678 23.5202 25.5102 23.5202C25.0526 23.5202 24.6816 23.8912 24.6816 24.3488V25.9517H23.0787C22.6211 25.9517 22.2501 26.3227 22.2501 26.7803C22.2501 27.2379 22.6211 27.6089 23.0787 27.6089H24.6816V29.2114C24.6816 29.669 25.0526 30.04 25.5102 30.04C25.9678 30.04 26.3388 29.669 26.3388 29.2114V27.6089H27.9413C28.399 27.6089 28.7699 27.2379 28.7699 26.7803C28.7699 26.3227 28.399 25.9517 27.9413 25.9517H26.3388V24.3488Z" fill="#A0E7E7"/>
</g>
</svg>
